<svg width="159" height="25" viewBox="0 0 159 25" fill="none" xmlns="http://www.w3.org/2000/svg">
<path d="M15.7253 15.8304L7.86264 7.91567L15.7253 0.000976562H7.86264L0 7.91567L3.93132 11.9175L7.86264 15.8304L11.794 19.7432L15.7253 15.8304Z" fill="white"/>
<path d="M21.3174 11.9166L17.3861 7.91484L13.4548 4.00195L9.6108 7.91484L17.3861 15.8295L9.52344 23.7442H17.3861L21.3174 19.8313L25.2487 15.8295L21.3174 11.9166Z" fill="white"/>
<path d="M35.0323 7.91682C33.8966 7.91682 32.9356 8.27254 32.2367 9.0729C31.5378 9.87326 31.1883 10.9404 31.1883 12.3633C31.1883 13.7861 31.5378 14.8533 32.1493 15.6537C32.8482 16.454 33.7218 16.8097 34.9449 16.8097C35.7312 16.8097 36.5175 16.6319 37.4784 16.3651V17.5212C36.6922 17.788 35.8185 17.9658 34.7702 17.9658C33.1977 17.9658 31.9746 17.5212 31.101 16.5429C30.2273 15.5647 29.7905 14.1419 29.7905 12.3633C29.7905 11.2072 29.9653 10.229 30.4021 9.42862C30.8389 8.62825 31.4504 7.91682 32.1493 7.47218C32.8482 7.02753 33.8092 6.76074 34.9449 6.76074C36.0806 6.76074 37.0416 6.9386 37.9153 7.38325L37.3911 8.4504C36.6922 8.18361 35.9059 7.91682 35.0323 7.91682Z" fill="white"/>
<path d="M45.9527 14.9423C45.9527 15.9205 45.6032 16.6319 44.9043 17.1655C44.2054 17.6991 43.3318 17.9659 42.1087 17.9659C40.7983 17.9659 39.8373 17.788 39.1384 17.4323V16.1873C39.5752 16.3652 40.0994 16.543 40.5362 16.6319C40.973 16.7209 41.5845 16.8098 42.1087 16.8098C42.9823 16.8098 43.5939 16.6319 43.9433 16.3652C44.3801 16.0094 44.5549 15.5648 44.5549 15.0312C44.5549 14.6755 44.4675 14.3198 44.2928 14.1419C44.118 13.8751 43.8559 13.6973 43.5065 13.4305C43.157 13.2526 42.6329 12.9858 41.934 12.7191C40.973 12.3633 40.1867 11.9187 39.8373 11.3851C39.4005 10.8515 39.2257 10.229 39.2257 9.42868C39.2257 8.62832 39.5752 7.91688 40.1867 7.38331C40.7983 6.84973 41.6719 6.67188 42.6329 6.67188C43.6812 6.67188 44.6422 6.84973 45.6032 7.29438L45.2538 8.36153C44.3801 8.00581 43.5065 7.82795 42.6329 7.82795C41.934 7.82795 41.4972 8.00581 41.0603 8.2726C40.7109 8.53939 40.5362 8.98403 40.5362 9.51761C40.5362 9.87332 40.6235 10.229 40.7109 10.4069C40.8856 10.6737 41.0603 10.8515 41.4098 11.0294C41.7592 11.2073 42.1961 11.474 42.895 11.7408C44.0307 12.1855 44.8169 12.6301 45.2538 13.0748C45.7779 13.6083 45.9527 14.2309 45.9527 14.9423Z" fill="white"/>
<path d="M54.2515 14.9423C54.2515 15.9205 53.9021 16.6319 53.2032 17.1655C52.5043 17.6991 51.6307 17.9659 50.4076 17.9659C49.0971 17.9659 48.1362 17.788 47.4373 17.4323V16.1873C47.8741 16.3652 48.3982 16.543 48.8351 16.6319C49.2719 16.7209 49.8834 16.8098 50.4076 16.8098C51.2812 16.8098 51.8928 16.6319 52.2422 16.3652C52.679 16.0094 52.8537 15.5648 52.8537 15.0312C52.8537 14.6755 52.7664 14.3198 52.5917 14.1419C52.4169 13.8751 52.1548 13.6973 51.8054 13.4305C51.4559 13.2526 50.9318 12.9858 50.2329 12.7191C49.2719 12.3633 48.4856 11.9187 48.1362 11.3851C47.6993 10.8515 47.5246 10.229 47.5246 9.42868C47.5246 8.62832 47.8741 7.91688 48.4856 7.38331C49.0971 6.84973 49.9708 6.67188 50.9318 6.67188C51.9801 6.67188 52.9411 6.84973 53.9021 7.29438L53.5526 8.36153C52.679 8.00581 51.8054 7.82795 50.9318 7.82795C50.2329 7.82795 49.796 8.00581 49.3592 8.2726C49.0098 8.53939 48.8351 8.98403 48.8351 9.51761C48.8351 9.87332 48.9224 10.229 49.0098 10.4069C49.1845 10.6737 49.3592 10.8515 49.7087 11.0294C50.0581 11.2073 50.4949 11.474 51.1938 11.7408C52.3296 12.1855 53.1158 12.6301 53.5526 13.0748C53.9895 13.6083 54.2515 14.2309 54.2515 14.9423Z" fill="white"/>
<path d="M65.1728 12.1853C65.1728 13.9639 64.6487 15.3867 63.6877 16.365C62.7267 17.3432 61.3289 17.8768 59.4943 17.8768H55.9998V6.93848H59.669C61.4162 6.93848 62.7267 7.38312 63.6877 8.27241C64.6487 9.16171 65.1728 10.4956 65.1728 12.1853ZM62.2025 12.2742C62.2025 11.296 62.0278 10.4956 61.591 10.051C61.2415 9.60635 60.63 9.33956 59.8437 9.33956H58.9701V15.4757H59.5816C60.4553 15.4757 61.0668 15.2089 61.5036 14.6753C62.0278 14.1417 62.2025 13.3414 62.2025 12.2742Z" fill="white"/>
<path d="M70.9382 18.055C69.5404 18.055 68.492 17.6992 67.7058 16.8989C66.9195 16.1875 66.5701 15.1203 66.5701 13.6974C66.5701 12.2746 66.9195 11.2074 67.6184 10.4071C68.3173 9.60669 69.3657 9.25098 70.6761 9.25098C71.8992 9.25098 72.8602 9.60669 73.5591 10.2292C74.258 10.8517 74.6074 11.8299 74.6074 13.0749V14.4089H69.453C69.453 14.8535 69.6278 15.2092 69.9772 15.5649C70.3267 15.8317 70.7635 16.0096 71.2876 16.0096C71.8118 16.0096 72.2486 15.9207 72.6855 15.8317C73.1223 15.7428 73.5591 15.5649 74.0833 15.2982V17.4325C73.6464 17.6992 73.2096 17.7882 72.6855 17.8771C72.1613 17.966 71.6371 18.055 70.9382 18.055ZM70.7635 11.2963C70.414 11.2963 70.1519 11.3853 69.8898 11.6521C69.6278 11.8299 69.5404 12.1856 69.453 12.6303H71.8992C71.8992 12.1856 71.8118 11.9189 71.5497 11.6521C71.4624 11.3853 71.2003 11.2963 70.7635 11.2963Z" fill="white"/>
<path d="M82.6443 15.298C82.6443 16.1873 82.3822 16.8988 81.7707 17.3434C81.1591 17.788 80.2855 18.0548 79.1498 18.0548C78.5382 18.0548 78.0141 18.0548 77.5772 17.9659C77.1404 17.877 76.6163 17.788 76.1794 17.6102V15.298C76.6163 15.4759 77.1404 15.6538 77.6646 15.8316C78.1888 15.9205 78.6256 16.0095 79.0624 16.0095C79.6739 16.0095 80.0234 15.8316 80.0234 15.5648C80.0234 15.387 79.936 15.298 79.7613 15.2091C79.5866 15.1202 79.0624 14.8534 78.2761 14.4977C77.4899 14.142 76.9657 13.7862 76.7036 13.4305C76.4415 12.9859 76.2668 12.5412 76.2668 11.9187C76.2668 11.1184 76.5289 10.4959 77.1404 10.0512C77.752 9.60657 78.5382 9.42871 79.674 9.42871C80.1981 9.42871 80.7223 9.51764 81.2465 9.60657C81.7707 9.6955 82.2075 9.87336 82.7316 10.1401L81.9454 12.0077C81.5959 11.8298 81.1591 11.6519 80.7223 11.563C80.2855 11.4741 79.936 11.3852 79.674 11.3852C79.2371 11.3852 78.975 11.4741 78.975 11.7409C78.975 11.9187 79.0624 12.0077 79.2371 12.0966C79.4119 12.1855 79.8487 12.3634 80.6349 12.7191C81.2465 12.9859 81.6833 13.1637 81.9454 13.4305C82.2075 13.6973 82.4696 13.9641 82.5569 14.2309C82.5569 14.4087 82.6443 14.8534 82.6443 15.298Z" fill="white"/>
<path d="M84.2185 7.2939C84.2185 6.84925 84.3059 6.49354 84.568 6.31568C84.83 6.13782 85.1795 5.95996 85.7037 5.95996C86.2278 5.95996 86.6647 6.04889 86.8394 6.31568C87.1015 6.49354 87.1888 6.84925 87.1888 7.2939C87.1888 8.18319 86.6647 8.53891 85.6163 8.53891C84.6553 8.62784 84.2185 8.18319 84.2185 7.2939ZM87.1015 17.8765H84.2185V9.4282H87.1015V17.8765Z" fill="white"/>
<path d="M96.9729 9.42883V10.8517L95.8372 11.2963C96.0119 11.5631 96.0992 11.9189 96.0992 12.2746C96.0992 13.1639 95.7498 13.8753 95.1383 14.4089C94.5267 14.9424 93.5657 15.1203 92.3427 15.1203C91.9932 15.1203 91.8185 15.1203 91.6438 15.0314C91.5564 15.1203 91.5564 15.2982 91.5564 15.3871C91.5564 15.5649 91.6438 15.6539 91.9058 15.7428C92.1679 15.8317 92.43 15.8317 92.7795 15.8317H94.1773C96.0119 15.8317 96.9729 16.6321 96.9729 18.2328C96.9729 19.3 96.5361 20.1003 95.6624 20.6339C94.7888 21.1675 93.5657 21.5232 91.9932 21.5232C90.8575 21.5232 89.8965 21.3453 89.285 20.9007C88.6734 20.545 88.324 19.9225 88.324 19.211C88.324 18.2328 88.9355 17.5214 90.1586 17.2546C89.8965 17.1657 89.7218 16.9878 89.4597 16.721C89.285 16.4542 89.1976 16.2764 89.1976 16.0096C89.1976 15.7428 89.285 15.476 89.3723 15.2982C89.5471 15.1203 89.8091 14.8535 90.246 14.5867C89.8091 14.4089 89.4597 14.0531 89.1976 13.6974C88.9355 13.2528 88.8481 12.8081 88.8481 12.1856C88.8481 11.2963 89.1976 10.5849 89.8091 10.0513C90.4207 9.51776 91.2943 9.25098 92.43 9.25098C92.6047 9.25098 92.8668 9.25098 93.2163 9.33991C93.5657 9.33991 93.8278 9.42883 94.0025 9.42883H96.9729ZM90.6828 18.9443C90.6828 19.211 90.7701 19.3889 91.0322 19.5668C91.2943 19.7446 91.6438 19.7446 92.0806 19.7446C92.7795 19.7446 93.3036 19.6557 93.7405 19.4778C94.1773 19.3 94.352 19.0332 94.352 18.7664C94.352 18.4996 94.2646 18.4107 94.0025 18.3217C93.7405 18.2328 93.391 18.1439 92.8668 18.1439H91.7311C91.3817 18.1439 91.2069 18.2328 90.9449 18.3217C90.7701 18.4996 90.6828 18.6775 90.6828 18.9443ZM91.5564 12.1856C91.5564 13.0749 91.8185 13.5196 92.43 13.5196C92.6921 13.5196 92.9542 13.4306 93.0416 13.1639C93.2163 12.986 93.3036 12.6303 93.3036 12.1856C93.3036 11.2963 93.0416 10.8517 92.43 10.8517C91.9058 10.8517 91.5564 11.2963 91.5564 12.1856Z" fill="white"/>
<path d="M103.438 17.877V13.2527C103.438 12.7191 103.351 12.2744 103.176 12.0077C103.001 11.7409 102.739 11.563 102.39 11.563C101.866 11.563 101.516 11.7409 101.342 12.1855C101.167 12.5412 100.992 13.2527 100.992 14.2309V17.9659H98.1091V9.51764H100.293L100.643 10.5848H100.817C101.079 10.2291 101.429 9.87336 101.866 9.6955C102.303 9.51764 102.827 9.42871 103.351 9.42871C104.312 9.42871 105.011 9.6955 105.535 10.2291C106.059 10.7626 106.321 11.563 106.321 12.5412V18.0548H103.438V17.877Z" fill="white"/>
<path d="M115.494 17.8768L114.183 14.4085H109.902L108.592 17.8768H107.369L111.65 6.93848H112.698L116.891 17.8768H115.494ZM113.746 13.2524L112.523 9.87314C112.349 9.42849 112.174 8.89492 111.999 8.27241C111.912 8.71706 111.737 9.25063 111.562 9.87314L110.339 13.2524H113.746Z" fill="white"/>
<path d="M124.668 17.8767L123.183 13.0746C123.096 12.8078 122.921 12.0963 122.659 11.1181H122.571C122.397 12.0074 122.222 12.6299 122.047 13.1635L120.562 17.9657H119.164L116.98 9.78418H118.291C118.815 11.8295 119.164 13.4303 119.514 14.4974C119.776 15.5646 119.951 16.276 119.951 16.6317H120.038C120.125 16.3649 120.213 16.0092 120.3 15.5646C120.387 15.1199 120.562 14.7642 120.649 14.4974L122.135 9.78418H123.445L124.843 14.4974C125.105 15.3867 125.28 16.0981 125.367 16.6317H125.454C125.454 16.4539 125.542 16.1871 125.629 15.8314C125.716 15.4756 126.241 13.4303 127.114 9.78418H128.337L126.153 17.9657H124.668V17.8767Z" fill="white"/>
<path d="M134.712 17.8769L134.45 16.7208H134.363C133.926 17.2544 133.576 17.6101 133.14 17.788C132.703 17.9658 132.266 18.0548 131.654 18.0548C130.868 18.0548 130.257 17.8769 129.82 17.4323C129.383 16.9876 129.121 16.4541 129.121 15.6537C129.121 13.964 130.431 13.1637 133.052 13.0747L134.45 12.9858V12.4522C134.45 11.8297 134.275 11.2962 134.013 11.0294C133.751 10.7626 133.314 10.5847 132.703 10.5847C132.004 10.5847 131.305 10.7626 130.431 11.2072L130.082 10.229C130.519 10.0512 130.868 9.8733 131.392 9.69544C131.829 9.60651 132.353 9.51758 132.79 9.51758C133.751 9.51758 134.45 9.69544 134.887 10.1401C135.324 10.5847 135.586 11.2962 135.586 12.1855V17.788H134.712V17.8769ZM131.916 16.9876C132.703 16.9876 133.227 16.8098 133.664 16.3651C134.101 15.9205 134.275 15.3869 134.275 14.5865V13.8751L133.052 13.964C132.091 13.964 131.392 14.1419 130.955 14.4087C130.519 14.6755 130.344 15.1201 130.344 15.6537C130.344 16.0983 130.519 16.4541 130.781 16.6319C131.13 16.8987 131.48 16.9876 131.916 16.9876Z" fill="white"/>
<path d="M141.79 9.51758C142.139 9.51758 142.489 9.51758 142.751 9.60651L142.576 10.7626C142.227 10.6737 141.965 10.6737 141.702 10.6737C141.091 10.6737 140.479 10.9404 140.043 11.474C139.606 12.0076 139.344 12.719 139.344 13.5194V17.8769H138.121V9.69544H139.082L139.256 11.2072H139.344C139.606 10.6737 140.043 10.229 140.392 9.96222C140.829 9.69544 141.266 9.51758 141.79 9.51758Z" fill="white"/>
<path d="M149.741 16.8091C149.13 17.6095 148.256 18.0541 147.12 18.0541C146.072 18.0541 145.286 17.6984 144.674 16.987C144.063 16.2756 143.801 15.2084 143.801 13.8745C143.801 12.5405 144.063 11.4734 144.674 10.7619C145.286 10.0505 146.072 9.60587 147.12 9.60587C148.169 9.60587 149.042 10.0505 149.654 10.8509H149.741L149.654 10.2284V9.6948V6.22656H150.877V17.8763H149.916L149.741 16.8091ZM147.295 16.987C148.169 16.987 148.693 16.7202 149.13 16.2756C149.479 15.8309 149.654 15.0305 149.654 14.0523V13.7855C149.654 12.6295 149.479 11.8291 149.042 11.2955C148.693 10.7619 148.081 10.5841 147.208 10.5841C146.509 10.5841 145.985 10.8509 145.548 11.4734C145.198 12.007 144.936 12.8073 144.936 13.8745C144.936 14.9416 145.111 15.742 145.46 16.2756C145.985 16.7202 146.509 16.987 147.295 16.987Z" fill="white"/>
<path d="M158.65 15.6537C158.65 16.4541 158.388 16.9876 157.777 17.4323C157.253 17.8769 156.466 18.0548 155.418 18.0548C154.37 18.0548 153.496 17.8769 152.885 17.5212V16.3651C153.234 16.543 153.671 16.7208 154.108 16.8098C154.544 16.8987 154.981 16.9876 155.418 16.9876C156.03 16.9876 156.554 16.8987 156.903 16.7208C157.253 16.543 157.427 16.1873 157.427 15.7426C157.427 15.3869 157.253 15.1201 156.991 14.9423C156.728 14.6755 156.204 14.4087 155.418 14.1419C154.632 13.8751 154.108 13.6083 153.846 13.4305C153.496 13.2526 153.321 12.9858 153.147 12.719C152.972 12.4522 152.885 12.0965 152.885 11.7408C152.885 11.1183 153.147 10.5847 153.671 10.1401C154.195 9.69544 154.894 9.51758 155.855 9.51758C156.728 9.51758 157.602 9.69544 158.388 10.0512L157.952 11.0294C157.165 10.6737 156.379 10.4958 155.767 10.4958C155.156 10.4958 154.719 10.5847 154.457 10.7626C154.195 10.9404 154.02 11.2072 154.02 11.5629C154.02 11.7408 154.108 12.0076 154.195 12.0965C154.282 12.2744 154.457 12.3633 154.719 12.5412C154.981 12.719 155.418 12.8969 156.117 13.1637C157.078 13.5194 157.689 13.8751 158.039 14.2308C158.476 14.6755 158.65 15.1201 158.65 15.6537Z" fill="white"/>
</svg>
