<svg width="163" height="26" viewBox="0 0 163 26" fill="none" xmlns="http://www.w3.org/2000/svg">
<g clip-path="url(#clip0_3494_2042)">
<path d="M0.693617 12.2506C1.27163 9.24491 3.9305 7.16406 7.62979 7.16406C11.9071 7.16406 15.2596 9.01371 15.2596 14.7938V25.5449H11.5603L11.0979 23.2329C9.82624 24.8513 8.0922 25.8917 5.54894 25.8917C2.42766 25.8917 0 23.9265 0 20.3428C0 16.7591 3.23688 14.447 7.74539 14.447H10.7511V13.6378C10.7511 11.557 9.24823 10.979 7.51418 10.979C6.24255 10.979 4.97092 11.4414 4.39291 13.0598L0.693617 12.2506ZM6.58936 22.0768C8.67021 22.0768 10.7511 20.6896 10.7511 18.3775V18.0307H7.86099C5.89574 17.9151 4.73972 18.7243 4.73972 20.3428C4.73972 21.152 5.43333 22.0768 6.58936 22.0768Z" fill="white"/>
<path d="M87.8577 12.2506C88.4357 9.24491 91.0946 7.16406 94.7938 7.16406C99.0712 7.16406 102.424 9.01371 102.424 14.7938V25.5449H98.7243L98.2619 23.2329C96.9903 24.8513 95.2563 25.8917 92.713 25.8917C89.5917 25.8917 87.1641 23.9265 87.1641 20.3428C87.1641 16.7591 90.4009 14.447 94.9094 14.447H97.9151V13.6378C97.9151 11.557 96.4123 10.979 94.6782 10.979C93.4066 10.979 92.135 11.4414 91.557 13.0598L87.8577 12.2506ZM93.7534 22.0768C95.8343 22.0768 97.9151 20.6896 97.9151 18.3775V18.0307H94.9094C92.9442 18.0307 91.7882 18.7243 91.7882 20.3428C91.9038 21.152 92.5974 22.0768 93.7534 22.0768Z" fill="white"/>
<path d="M106.469 25.6605V7.39527H110.977V10.4009C112.249 8.20449 114.33 7.16406 116.295 7.16406C117.104 7.16406 117.798 7.27967 118.491 7.51087L117.682 11.6726C117.104 11.3258 116.526 11.0946 115.833 11.0946C113.174 11.0946 110.977 13.291 110.977 19.0712V25.5449L106.469 25.6605Z" fill="white"/>
<path d="M128.087 7.16212C129.936 7.16212 131.67 8.08695 132.48 9.12737V0.110352H136.988V25.6586H132.48V23.8089C131.902 24.7338 130.283 26.0054 128.087 26.0054C122.653 26.0054 119.879 22.1905 119.879 16.6416C119.879 11.0926 122.653 7.16212 128.087 7.16212ZM128.78 22.0749C131.092 22.0749 132.942 20.1096 132.942 16.526C132.942 12.9423 131.092 10.977 128.78 10.977C126.468 10.977 124.619 12.9423 124.619 16.526C124.619 20.1096 126.468 22.0749 128.78 22.0749Z" fill="white"/>
<path d="M153.173 10.0539L150.514 12.4816C149.705 11.3255 148.433 10.8631 147.509 10.8631C146.584 10.8631 145.775 11.4411 145.775 12.366C145.775 13.1752 146.468 13.7532 147.509 14.1C150.052 15.0248 154.098 15.834 154.098 19.6489C154.098 23.0014 151.555 25.6603 147.624 25.6603C143.809 25.6603 141.266 23.0014 140.457 20.805L144.041 18.8397C144.734 20.5738 145.89 21.8454 147.74 21.8454C149.127 21.8454 150.052 21.1518 150.052 19.8801C150.052 18.3773 147.74 18.0305 145.543 17.1057C143.578 16.2964 141.844 15.0248 141.844 12.2503C141.844 9.47588 144.156 6.93262 147.624 6.93262C149.936 7.04822 152.133 8.31985 153.173 10.0539Z" fill="white"/>
<path d="M59.9982 7.39453L56.7613 19.9952L53.64 7.39453H49.4783L46.4726 19.9952L43.9294 12.7123L43.5825 13.5215L42.1953 18.2612L44.5074 25.6598H48.4379L51.5591 13.8683L54.6804 25.6598H58.7265L64.5067 7.39453H59.9982Z" fill="white"/>
<path d="M81.6157 7.39453L78.3788 19.9952L75.2575 7.39453H71.0958L68.0902 19.9952L65.5469 12.7123L65.2001 13.5215L63.6973 18.2612L66.1249 25.6598H70.0554L73.1767 13.8683L76.298 25.6598H80.2285L86.1242 7.39453H81.6157Z" fill="white"/>
<path d="M42.8884 7.39453L37.1083 25.5442H33.1778L30.0565 13.8683L26.9352 25.6598H23.0048L17.2246 7.51013H21.7331L24.97 19.9952L28.0913 7.51013H32.253L35.3743 19.9952L38.6111 7.51013L42.8884 7.39453Z" fill="white"/>
<path d="M159.996 19.7637C161.73 19.7637 163.002 21.0353 163.002 22.7693C163.002 24.5034 161.73 25.775 159.996 25.775C158.262 25.775 156.99 24.5034 156.99 22.7693C156.99 21.0353 158.262 19.7637 159.996 19.7637Z" fill="white"/>
</g>
<defs>
<clipPath id="clip0_3494_2042">
<rect width="163" height="25.7794" fill="white" transform="translate(0 0.110352)"/>
</clipPath>
</defs>
</svg>
