<svg width="101" height="26" viewBox="0 0 101 26" fill="none" xmlns="http://www.w3.org/2000/svg">
<g clip-path="url(#clip0_2822_3769)">
<path d="M33.6016 11.756H35.7582V3.93906L40.221 11.756H42.6472V0.775391H40.4906V8.0088L36.417 0.775391H33.6016V11.756Z" fill="white"/>
<path d="M47.8892 10.2369C46.6612 10.2369 45.9722 9.31547 45.9722 7.77969V7.65684C45.9722 6.12109 46.6911 5.23034 47.8892 5.23034C49.1024 5.23034 49.8061 6.1518 49.8061 7.68756V7.79505C49.8061 9.31547 49.1024 10.2369 47.8892 10.2369ZM47.8742 11.9263C50.2255 11.9263 52.0077 10.3137 52.0077 7.77969V7.65684C52.0077 5.15357 50.2405 3.54102 47.8892 3.54102C45.538 3.54102 43.7559 5.18427 43.7559 7.70292V7.82577C43.7559 10.3291 45.538 11.9263 47.8742 11.9263Z" fill="white"/>
<path d="M52.8633 8.31591H56.6972V6.5498H52.8633V8.31591Z" fill="white"/>
<path d="M63.0366 11.9269C65.6723 11.9269 67.5743 10.5294 67.844 7.81109H65.4629C65.2681 9.22399 64.3395 9.91508 63.0067 9.91508C61.2395 9.91508 60.2212 8.59434 60.2212 6.32142V6.19856C60.2212 3.92564 61.2994 2.57418 62.9917 2.57418C64.3395 2.57418 65.0585 3.28061 65.2382 4.60137H67.7241C67.4695 1.89843 65.5527 0.608398 62.9767 0.608398C59.9366 0.608398 57.6602 2.88132 57.6602 6.2139V6.33678C57.6602 9.71543 59.5322 11.9269 63.0366 11.9269Z" fill="white"/>
<path d="M72.4284 10.2369C71.2004 10.2369 70.5115 9.31547 70.5115 7.77969V7.65684C70.5115 6.12109 71.2304 5.23034 72.4284 5.23034C73.6414 5.23034 74.3454 6.1518 74.3454 7.68756V7.79505C74.3454 9.31547 73.6414 10.2369 72.4284 10.2369ZM72.4135 11.9263C74.7648 11.9263 76.547 10.3137 76.547 7.77969V7.65684C76.547 5.15357 74.7798 3.54102 72.4284 3.54102C70.0771 3.54102 68.2949 5.18427 68.2949 7.70292V7.82577C68.2949 10.3291 70.0771 11.9263 72.4135 11.9263Z" fill="white"/>
<path d="M80.4875 11.9257C81.6406 11.9257 82.5992 11.2346 83.0034 10.4206V11.7567H85.16V0.0849609H83.0034V4.9226C82.5692 4.10865 81.7904 3.54042 80.5324 3.54042C78.5705 3.54042 77.0879 5.09153 77.0879 7.73304V7.85589C77.0879 10.5281 78.5855 11.9257 80.4875 11.9257ZM81.1313 10.1903C80.0531 10.1903 79.3042 9.40701 79.3042 7.80981V7.68696C79.3042 6.08977 79.9782 5.2451 81.1912 5.2451C82.3745 5.2451 83.0633 6.05905 83.0633 7.65624V7.77909C83.0633 9.40701 82.2697 10.1903 81.1313 10.1903Z" fill="white"/>
<path d="M90.2485 11.9263C92.3902 11.9263 93.738 10.9587 93.9926 9.22331H91.9408C91.806 9.89904 91.312 10.3444 90.3084 10.3444C89.1254 10.3444 88.4214 9.57654 88.3615 8.24044H94.0076V7.62612C94.0076 4.75426 92.2104 3.54102 90.1886 3.54102C87.9124 3.54102 86.1602 5.18427 86.1602 7.71828V7.84113C86.1602 10.4058 87.8824 11.9263 90.2485 11.9263ZM88.3915 6.87361C88.5562 5.73714 89.2153 5.07677 90.1886 5.07677C91.2221 5.07677 91.821 5.66037 91.8959 6.87361H88.3915Z" fill="white"/>
<path d="M38.4234 25.9103C41.0593 25.9103 42.9611 24.5128 43.2307 21.7944H40.8496C40.6549 23.2075 39.7262 23.8984 38.3934 23.8984C36.6262 23.8984 35.6079 22.5777 35.6079 20.3048V20.1819C35.6079 17.909 36.6861 16.5576 38.3784 16.5576C39.7262 16.5576 40.4452 17.264 40.6249 18.5848H43.1108C42.8564 15.8818 40.9395 14.5918 38.3634 14.5918C35.3233 14.5918 33.0469 16.8647 33.0469 20.1973V20.3202C33.0469 23.6988 34.9189 25.9103 38.4234 25.9103Z" fill="white"/>
<path d="M47.8132 24.2213C46.5852 24.2213 45.8962 23.2999 45.8962 21.764V21.6411C45.8962 20.1055 46.6152 19.2147 47.8132 19.2147C49.0262 19.2147 49.7302 20.1362 49.7302 21.6718V21.7793C49.7302 23.2999 49.0262 24.2213 47.8132 24.2213ZM47.7982 25.9106C50.1496 25.9106 51.9317 24.2981 51.9317 21.764V21.6411C51.9317 19.1379 50.1645 17.5254 47.8132 17.5254C45.4619 17.5254 43.6797 19.1686 43.6797 21.6872V21.8101C43.6797 24.3134 45.4619 25.9106 47.7982 25.9106Z" fill="white"/>
<path d="M52.9395 25.7417H55.1109V21.1037C55.1109 19.9212 55.8148 19.3376 56.7432 19.3376C57.7018 19.3376 58.1212 19.8597 58.1212 20.9501V25.7417H60.2926V20.6276C60.2926 18.4775 59.1994 17.5254 57.6569 17.5254C56.354 17.5254 55.5003 18.1858 55.1109 18.9843V17.7097H52.9395V25.7417Z" fill="white"/>
<path d="M62.0647 25.7424H64.2211V19.2922H65.9284V17.7104H64.2211V16.7275C64.2211 16.1132 64.5057 15.6678 65.1947 15.6678C65.5092 15.6678 65.7787 15.7293 65.9883 15.8061V14.1321C65.6439 14.0246 65.3295 13.9785 64.8652 13.9785C63.128 13.9785 62.0647 14.9153 62.0647 16.789V17.7104H61.0312V19.2922H62.0647V25.7424Z" fill="white"/>
<path d="M68.9062 25.7426H76.9933V23.8536H72.8299L74.8517 21.8264C76.0947 20.5978 76.9184 19.4 76.9184 17.941C76.9184 15.9599 75.5706 14.6084 73.2043 14.6084C70.8083 14.6084 69.3107 15.9906 69.1908 18.5246H71.3922C71.5569 17.081 72.1561 16.5127 73.0995 16.5127C74.0281 16.5127 74.5222 17.0963 74.5222 18.0024C74.5222 19.0007 73.8633 19.9682 72.8299 21.0893L68.9062 25.3433V25.7426Z" fill="white"/>
<path d="M82.4716 23.9611C80.974 23.9611 80.1801 22.8094 80.1801 20.5057V19.9835C80.1801 17.7106 80.944 16.5281 82.4416 16.5281C83.9242 16.5281 84.6729 17.772 84.6729 19.9835V20.475C84.6729 22.7787 83.9841 23.9611 82.4716 23.9611ZM82.4116 25.9116C85.302 25.9116 87.0842 23.8229 87.0842 20.4596V19.9528C87.0842 16.5434 85.1822 14.6084 82.4266 14.6084C79.6709 14.6084 77.7539 16.6202 77.7539 19.9989V20.521C77.7539 23.8843 79.566 25.9116 82.4116 25.9116Z" fill="white"/>
<path d="M87.4863 25.7426H95.5734V23.8536H91.4099L93.4318 21.8264C94.6747 20.5978 95.4985 19.4 95.4985 17.941C95.4985 15.9599 94.1507 14.6084 91.7844 14.6084C89.3881 14.6084 87.8905 15.9906 87.7707 18.5246H89.9723C90.137 17.081 90.7361 16.5127 91.6796 16.5127C92.6082 16.5127 93.1023 17.0963 93.1023 18.0024C93.1023 19.0007 92.4434 19.9682 91.4099 21.0893L87.4863 25.3433V25.7426Z" fill="white"/>
<path d="M98.3843 25.7433H100.811V14.7627H98.6839L96.2129 16.5595V18.6789L98.3843 17.2199V25.7433Z" fill="white"/>
<path d="M6.31937 0.208008H12.5702V12.9413L0.0136724 25.6759V6.60387C0.0122665 3.07231 2.83542 0.209434 6.31795 0.208008H6.31937Z" fill="white"/>
<path d="M12.5703 12.9413H25.1282V0.208008L12.5703 12.9413Z" fill="white"/>
<path d="M18.8454 25.6468C22.3132 25.6468 25.1244 22.796 25.1244 19.2795C25.1244 15.7629 22.3132 12.9121 18.8454 12.9121C15.3776 12.9121 12.5664 15.7629 12.5664 19.2795C12.5664 22.796 15.3776 25.6468 18.8454 25.6468Z" fill="white"/>
</g>
<defs>
<clipPath id="clip0_2822_3769">
<rect width="101" height="25.945" fill="white" transform="translate(0 0.0273438)"/>
</clipPath>
</defs>
</svg>
