<svg width="212" height="32" viewBox="0 0 212 32" fill="none" xmlns="http://www.w3.org/2000/svg">
<path d="M0 0H8.48214L14.8661 15.8171C16.875 20.8 17.5893 24.0457 17.5893 24.0457C17.5893 24.0457 18.3482 20.8 20.3125 15.9543L26.7411 0H35V32H28.9286V16.7771C28.9286 11.3829 29.1964 8 29.1964 8C29.1964 8 28.1696 11.2457 26.25 16.0457L19.8214 32H15.1786L8.83929 16.2286C6.83036 11.2457 5.84821 8 5.84821 8C5.84821 8 6.07143 11.3829 6.07143 16.5943V32H0V0Z" fill="white"/>
<path d="M103 0H110.467L119.4 16.4114C121.978 21.12 123.267 24.2286 123.267 24.2286C123.267 24.2286 122.956 20.8457 122.956 15.6343V0H129V32H121.578L112.556 15.5886C110.022 10.88 108.733 7.77143 108.733 7.77143C108.733 7.77143 109.044 11.1543 109.044 16.3657V32H103V0Z" fill="white"/>
<path d="M181 0H187.479L196.118 24.1371L204.656 0H211L199.391 32H192.552L181 0Z" fill="white"/>
<path d="M85 32H78.3074L69.3838 7.86286L60.5532 32H54L65.991 0H73.0555L85 32Z" fill="white"/>
<path d="M159.247 0L147 32H153.8L166 0H159.247Z" fill="white"/>
</svg>
