<svg width="105" height="32" viewBox="0 0 105 32" fill="none" xmlns="http://www.w3.org/2000/svg">
<path d="M0 6.15173H4.28104L7.93457 15.343L11.602 6.15173L15.2556 15.343L18.8951 6.15173H23.1762L15.2556 26L11.5463 16.343L7.93457 26L0 6.15173ZM24.8914 6.11064H36.8142V10.0008H28.8656V13.9047H34.8201V17.795H28.8656V21.7126H36.8142V25.5891H24.8914V6.11064ZM47.8026 6.00106L47.8166 6.02845C50.4744 6.03899 53.0223 7.07158 54.9145 8.90501L52.0837 11.6857C50.8705 10.5351 49.4621 9.94605 47.8445 9.94605C46.2434 9.92599 44.7047 10.5553 43.5913 11.6857C42.42 12.85 41.8343 14.2472 41.8343 15.8635C41.8085 17.4346 42.4443 18.9463 43.5913 20.0414C44.9664 21.4094 46.9369 22.0283 48.8649 21.6976C50.7928 21.3669 52.4332 20.1288 53.255 18.384H47.6213V14.6718H57.7592C58.1344 17.6786 57.0741 20.6869 54.8866 22.8221C52.9204 24.7398 50.5497 25.7123 47.8026 25.7123C45.14 25.753 42.5797 24.7063 40.7326 22.8221C38.7664 20.9181 37.7903 18.6031 37.7903 15.8635C37.7518 13.2446 38.8166 10.7265 40.7326 8.90501C42.671 6.95991 45.0276 6.00106 47.8026 6.00106ZM59.5162 6.15173H63.4905V21.6852H71.425V25.5617H59.5162V6.15173ZM81.2143 6.00106C83.8834 5.96186 86.4492 7.01366 88.2982 8.90501C90.2644 10.8364 91.2545 13.1514 91.2545 15.8635C91.2944 18.4855 90.2236 21.0058 88.2982 22.8221C86.332 24.7398 83.9753 25.6986 81.2143 25.6986C78.5524 25.7287 75.9936 24.6897 74.1303 22.8221C72.1641 20.9044 71.188 18.5757 71.188 15.8635C71.1495 13.2446 72.2143 10.7265 74.1303 8.90501C76.0965 6.95991 78.4532 6.00106 81.2143 6.00106ZM81.2143 9.93236C79.6109 9.90064 78.0677 10.5318 76.9611 11.672C75.7758 12.8363 75.1901 14.2335 75.1901 15.8498C75.1664 17.4232 75.8076 18.9359 76.9611 20.0277C78.1325 21.1646 79.5409 21.7399 81.2143 21.7399C82.8055 21.7586 84.3359 21.1405 85.4535 20.0277C86.6388 18.8771 87.2245 17.4799 87.2245 15.8498C87.2482 14.2765 86.607 12.7638 85.4535 11.672C84.2821 10.5077 82.8597 9.93236 81.2143 9.93236ZM90.2923 6.15173H104V10.0145H99.1472V25.5617H95.159V10.0145H90.2923V6.15173Z" fill="white"/>
</svg>
