<svg width="111" height="32" viewBox="0 0 111 32" fill="none" xmlns="http://www.w3.org/2000/svg">
<g clip-path="url(#clip0_1660_12230)">
<path d="M9.77385 12.1655H6.36206V24.3173H9.77385V12.1655Z" fill="white"/>
<path d="M13.2791 13.4325C14.3307 12.4166 15.7912 11.9087 17.649 11.9087C19.5068 11.9087 20.9557 12.4166 22.0014 13.4325C23.0471 14.4485 23.5729 15.7769 23.5729 17.4124V24.3117H20.167V17.6692C20.167 16.7538 19.9567 16.0449 19.5302 15.5369C19.1037 15.029 18.4786 14.7722 17.649 14.7722C16.8194 14.7722 16.1943 15.029 15.7679 15.5369C15.3414 16.0449 15.1311 16.7538 15.1311 17.6692V24.3117H11.6959V17.4124C11.6959 15.7769 12.2217 14.4485 13.2791 13.4325Z" fill="white"/>
<path d="M32.7042 24.3172C32.0382 24.4568 31.3955 24.5237 30.7821 24.5237C29.1405 24.5237 27.826 24.0716 26.8445 23.1673C25.863 22.2631 25.3723 20.9402 25.3723 19.1986V8.26367H28.8075V12.1654H32.6224V14.8559H28.8075V18.8637C28.8075 19.8796 29.0178 20.5941 29.4443 21.0071C29.8707 21.4202 30.6477 21.6267 31.7869 21.6267L32.71 21.5988V24.3116L32.7042 24.3172Z" fill="white"/>
<path d="M36.741 19.355C36.9396 20.1643 37.3252 20.7895 37.9035 21.2305C38.4819 21.6715 39.183 21.8892 40.0125 21.8892C40.7486 21.8892 41.3445 21.7887 41.8002 21.5933C42.2501 21.3979 42.6006 21.0798 42.8518 20.65H46.0182C45.6385 21.9282 44.9024 22.9051 43.7982 23.586C42.6999 24.267 41.4614 24.6075 40.0943 24.6075C38.7974 24.6075 37.6465 24.334 36.6475 23.7926C35.6485 23.2511 34.8715 22.4976 34.3223 21.5319C33.7732 20.5662 33.4986 19.4722 33.4986 18.2498C33.4986 17.0273 33.779 15.9556 34.3399 14.9899C34.9007 14.0243 35.6777 13.2707 36.665 12.7293C37.6582 12.1878 38.774 11.9143 40.0184 11.9143C41.2628 11.9143 42.3202 12.1878 43.29 12.7404C44.2656 13.293 45.0251 14.0522 45.5742 15.0178C46.1234 15.9835 46.398 17.0608 46.398 18.2498C46.398 18.6796 46.3804 19.048 46.3454 19.3606H36.741V19.355ZM36.7118 17.0776H43.179C43.0738 16.3687 42.7233 15.7826 42.1391 15.3193C41.5549 14.856 40.848 14.6215 40.0125 14.6215C39.1771 14.6215 38.4527 14.8448 37.8743 15.2914C37.296 15.7379 36.9104 16.3352 36.7118 17.0776Z" fill="white"/>
<path d="M49.3599 13.4325C50.4115 12.4166 51.8721 11.9087 53.7298 11.9087C55.5876 11.9087 57.0365 12.4166 58.0822 13.4325C59.1279 14.4485 59.6537 15.7769 59.6537 17.4124V24.3117H56.2478V17.6692C56.2478 16.7538 56.0375 16.0449 55.611 15.5369C55.1845 15.029 54.5594 14.7722 53.7298 14.7722C52.9003 14.7722 52.2752 15.029 51.8487 15.5369C51.4222 16.0449 51.2119 16.7538 51.2119 17.6692V24.3117H47.7767V17.4124C47.7767 15.7769 48.3025 14.4485 49.3599 13.4325Z" fill="white"/>
<path d="M60.8689 20.6723H64.1405C64.2106 21.1189 64.4326 21.4593 64.8006 21.6938C65.1687 21.9282 65.6069 22.0454 66.1093 22.0454C66.6117 22.0454 66.9797 21.9506 67.2602 21.7608C67.5406 21.571 67.6808 21.3198 67.6808 21.0128C67.6808 20.6667 67.5055 20.3988 67.155 20.209C66.8045 20.0192 66.2378 19.8239 65.4666 19.6173C64.602 19.3773 63.8776 19.1261 63.2992 18.8693C62.7209 18.6126 62.2243 18.2163 61.8095 17.6804C61.3947 17.1445 61.1844 16.4412 61.1844 15.5593C61.1844 14.8727 61.3772 14.2475 61.7511 13.7005C62.1308 13.1479 62.6741 12.7125 63.3869 12.3944C64.0996 12.0762 64.935 11.9143 65.8873 11.9143C67.2602 11.9143 68.376 12.2492 69.2406 12.9246C70.1053 13.5945 70.5843 14.5211 70.672 15.6933H67.453C67.3829 15.3304 67.2017 15.0402 66.9155 14.8169C66.6292 14.5936 66.2553 14.482 65.8055 14.482C65.3556 14.482 65.0226 14.5825 64.7481 14.789C64.4793 14.9955 64.3391 15.2523 64.3391 15.5649C64.3391 15.8942 64.5085 16.1398 64.8532 16.3128C65.1979 16.4859 65.7646 16.6924 66.5591 16.9324C67.4413 17.1892 68.1774 17.4515 68.7616 17.7083C69.3458 17.9651 69.8541 18.3614 70.2747 18.8973C70.7012 19.4331 70.9115 20.1364 70.9115 21.0184C70.9115 21.7273 70.6953 22.3469 70.263 22.8939C69.8307 23.4353 69.2465 23.8596 68.5045 24.161C67.7626 24.4624 66.9622 24.6131 66.0976 24.6131C64.6371 24.6131 63.4219 24.2447 62.4463 23.5135C61.4706 22.7823 60.939 21.8389 60.8514 20.6835" fill="white"/>
<path d="M74.9367 19.355C75.1353 20.1643 75.5209 20.7895 76.0993 21.2305C76.6776 21.6715 77.3787 21.8892 78.2083 21.8892C78.9502 21.8892 79.5403 21.7887 79.9901 21.5933C80.4399 21.3979 80.7905 21.0798 81.0475 20.65H84.2139C83.8342 21.9282 83.0981 22.9051 81.9939 23.586C80.8956 24.267 79.6571 24.6075 78.29 24.6075C76.9931 24.6075 75.8422 24.334 74.8374 23.7926C73.8384 23.2511 73.0614 22.4976 72.5122 21.5319C71.963 20.5662 71.6885 19.4722 71.6885 18.2498C71.6885 17.0273 71.9689 15.9556 72.5239 14.9899C73.0847 14.0243 73.8617 13.2707 74.849 12.7293C75.8422 12.1878 76.9581 11.9143 78.2024 11.9143C79.4468 11.9143 80.4984 12.1878 81.474 12.7404C82.4496 13.293 83.2091 14.0522 83.7583 15.0178C84.3074 15.9835 84.582 17.0608 84.582 18.2498C84.582 18.6796 84.5645 19.048 84.5294 19.3606H74.925L74.9367 19.355ZM74.9133 17.0776H81.3805C81.2754 16.3687 80.9248 15.7826 80.3406 15.3193C79.7506 14.856 79.0437 14.6215 78.2141 14.6215C77.3845 14.6215 76.6543 14.8448 76.0759 15.2914C75.4975 15.7379 75.1119 16.3352 74.9133 17.0776Z" fill="white"/>
<path d="M100.794 19.355C100.992 20.1643 101.378 20.7895 101.956 21.2305C102.535 21.6715 103.236 21.8892 104.065 21.8892C104.801 21.8892 105.397 21.7887 105.853 21.5933C106.303 21.3979 106.653 21.0798 106.905 20.65H110.071C109.691 21.9282 108.955 22.9051 107.851 23.586C106.753 24.267 105.514 24.6075 104.147 24.6075C102.85 24.6075 101.699 24.334 100.694 23.7926C99.6955 23.2511 98.9185 22.4976 98.3693 21.5319C97.8202 20.5662 97.5456 19.4722 97.5456 18.2498C97.5456 17.0273 97.826 15.9556 98.3869 14.9899C98.9477 14.0243 99.7189 13.2707 100.712 12.7293C101.705 12.1878 102.821 11.9143 104.065 11.9143C105.31 11.9143 106.367 12.1878 107.337 12.7404C108.313 13.293 109.072 14.0522 109.621 15.0178C110.17 15.9835 110.445 17.0608 110.445 18.2498C110.445 18.6796 110.427 19.048 110.392 19.3606H100.788L100.794 19.355ZM100.765 17.0776H107.232C107.127 16.3687 106.776 15.7826 106.192 15.3193C105.608 14.856 104.901 14.6215 104.071 14.6215C103.242 14.6215 102.511 14.8448 101.933 15.2914C101.355 15.7379 100.969 16.3352 100.77 17.0776" fill="white"/>
<path d="M94.1514 12.1655L91.1368 20.7114H91.0784L88.1048 12.1655H84.3775L89.3258 24.3396L87.2752 29.4359H90.8155L97.7676 12.1655H94.1514Z" fill="white"/>
<path d="M9.76798 3.35742C4.67366 3.35742 0.549133 7.30382 0.549133 12.1657H3.98429C3.98429 9.11236 6.57235 6.63958 9.76798 6.63958V3.35742Z" fill="white"/>
</g>
<defs>
<clipPath id="clip0_1660_12230">
<rect width="111" height="26.7931" fill="white" transform="translate(0 3)"/>
</clipPath>
</defs>
</svg>
