<svg width="95" height="32" viewBox="0 0 95 32" fill="none" xmlns="http://www.w3.org/2000/svg">
<path d="M0 7.50822V24.5209H17.0162V7.50822H0ZM11.7791 19.2848H5.23714V12.7443H11.7791V19.2848Z" fill="white"/>
<path d="M28.8005 12.7441H22.254V19.2892H28.8005V12.7441Z" fill="white"/>
<path d="M34.0314 7.50864H43.5137C46.9947 7.50864 48.5855 9.82733 48.5855 11.9494C48.5855 13.4774 47.9956 14.4602 46.4227 15.3806C48.4067 16.1133 49.4881 17.4401 49.4881 19.4818C49.4881 21.9256 47.7007 24.5213 43.5271 24.5213H34.0269L34.0314 7.50864ZM39.2104 20.6881H42.6423C42.87 20.708 43.0993 20.6802 43.3156 20.6065C43.5319 20.5328 43.7305 20.4149 43.8987 20.2602C44.0668 20.1055 44.2009 19.9174 44.2924 19.708C44.3838 19.4986 44.4306 19.2725 44.4297 19.044C44.4232 18.8431 44.3758 18.6457 44.2902 18.4638C44.2046 18.282 44.0828 18.1195 43.9321 17.9865C43.7814 17.8534 43.6052 17.7526 43.4141 17.6901C43.223 17.6277 43.0212 17.6049 42.821 17.6233H39.2104V20.6881ZM39.2104 14.2145H41.9675C43.2277 14.2145 43.7281 13.6293 43.7281 12.767C43.7349 12.5856 43.7025 12.4048 43.6334 12.2369C43.5642 12.069 43.4598 11.9179 43.3272 11.7938C43.1946 11.6697 43.037 11.5755 42.8648 11.5176C42.6927 11.4597 42.5101 11.4393 42.3295 11.458H39.2462L39.2104 14.2145Z" fill="white"/>
<path d="M54.886 7.50864H60.3689L66.6249 24.4856H60.9811L60.1544 21.9435H54.886L54.1889 24.4722H48.63L54.886 7.50864ZM57.4018 12.5526L55.9585 18.2264H59.0507L57.4018 12.5526Z" fill="white"/>
<path d="M75.3529 12.5622H80.5811C80.5811 9.6761 78.4094 7 73.2571 7C67.6044 7 65.8572 10.1273 65.8572 12.4013C65.8572 16.0782 70.3615 17.0566 70.5 17.1013C71.1703 17.3157 73.9676 18.0618 74.6647 18.312C75.2724 18.5264 75.8489 19.0134 75.8489 19.6523C75.8489 20.6441 74.6647 21.1221 73.6816 21.1221C73.0471 21.1221 70.9201 20.9121 70.9201 18.6605H65.5221C65.5221 21.6493 67.5821 25 73.3554 25C79.7321 25 81.0637 21.1981 81.0637 19.1921C81.0518 18.2385 80.7494 17.3112 80.197 16.5338C79.6445 15.7564 78.8682 15.1657 77.9715 14.8407C76.6756 14.3179 74.5217 13.8578 73.4448 13.545C72.8997 13.3842 71.0854 13.0179 71.0854 11.9099C71.0854 10.4937 73.4225 10.6768 73.0829 10.6768C74.1374 10.6679 75.3529 11.2621 75.3529 12.5622Z" fill="white"/>
<path d="M81.9518 7.50514H95V11.9951H87.1666V14.9884H94.151V19.2773H87.1398V24.5178H81.925L81.9518 7.50514Z" fill="white"/>
</svg>
