<svg width="79" height="32" viewBox="0 0 79 32" fill="none" xmlns="http://www.w3.org/2000/svg">
<path d="M59.4248 23.8432C58.9202 23.2635 58.5361 22.5906 58.2944 21.8633L58.2289 21.6804L58.1633 21.4568L58.1224 21.3185L58.0569 21.0624L58.0241 20.912C57.9913 20.7697 57.9627 20.6192 57.9381 20.4688C57.9332 20.4143 57.925 20.3599 57.9135 20.3062L57.8807 20.0419C57.8873 19.9838 57.8873 19.9253 57.8807 19.8671L57.8603 19.6435L69.3283 16.8992C69.2611 16.3097 69.0846 15.7377 68.8081 15.212C68.383 14.2928 67.6912 13.5195 66.8217 12.9922C65.8584 12.3877 64.7763 11.9937 63.6475 11.8376L63.455 11.8091C62.7743 11.7343 62.0879 11.7343 61.4072 11.8091C59.6018 12.0031 57.9057 12.767 56.5701 13.9883C55.2513 15.1795 54.3691 16.7736 54.0635 18.5173V18.5865C54.043 18.7003 54.0267 18.8101 54.0144 18.9361C54.0021 19.0621 54.0144 19.0784 53.9898 19.1597C53.9951 19.2219 53.9951 19.2845 53.9898 19.3467C53.998 19.4549 53.998 19.5638 53.9898 19.672V20.1964C54.0164 21.138 54.2163 22.0666 54.5796 22.9366C55.9005 25.9777 58.9186 27.9682 62.255 27.9983C63.6385 28.0259 65.0085 27.7218 66.2483 27.112C67.4746 26.5107 68.5329 25.6183 69.3283 24.5141L69.1317 24.0221C68.3207 25.5589 62.726 27.4697 59.4248 23.8432ZM64.6428 17.0903L57.8234 18.7166C57.8234 18.5133 57.8234 18.31 57.8521 18.1189V18.0579C57.8488 17.9929 57.8488 17.9278 57.8521 17.8628L57.8848 17.5985C57.9467 17.1757 58.0425 16.7582 58.1715 16.3504C58.4029 15.5938 58.7572 14.8799 59.22 14.2363C59.6423 13.6435 60.185 13.1447 60.8133 12.7727C61.4145 12.4157 62.1034 12.2303 62.8038 12.236C63.7814 12.236 64.4966 12.5072 64.95 13.0491C65.115 13.2382 65.2526 13.4488 65.3595 13.6752C65.8142 14.8258 65.7814 16.7407 64.6428 17.0903Z" fill="white"/>
<path d="M38.958 24.0107C38.1388 25.5637 32.5522 27.4705 29.2511 23.8481C28.7096 23.222 28.3054 22.491 28.0633 21.7014C27.7787 20.8062 27.6402 19.8715 27.6538 18.9328C27.6476 18.0562 27.7774 17.1842 28.0388 16.3471C28.2702 15.5905 28.6244 14.8766 29.0873 14.233C29.5022 13.6447 30.0346 13.1479 30.6518 12.7734C31.2531 12.4169 31.942 12.2311 32.6423 12.2368C33.62 12.2368 34.3351 12.508 34.7885 13.0499C35.2554 13.6357 35.4967 14.3684 35.4684 15.1152C35.4782 15.5031 35.4201 15.8897 35.2964 16.2576L38.7777 15.4445C37.5122 12.1921 33.3181 11.7408 32.5441 11.7408C25.9008 11.6351 22.2556 17.8391 24.4018 22.8927C25.7239 25.9357 28.7428 27.9287 32.0812 27.9624C33.4648 27.9901 34.8348 27.686 36.0746 27.0761C37.3008 26.4752 38.3592 25.5829 39.1545 24.4782L38.958 24.0107Z" fill="white"/>
<path d="M54.0631 24.0115C53.244 25.5645 47.6574 27.4713 44.3563 23.8489C43.8206 23.2268 43.4204 22.5015 43.1808 21.7185C42.8961 20.8233 42.7577 19.8886 42.7712 18.9498C42.7651 18.0733 42.8949 17.2012 43.1562 16.3641C43.3864 15.6079 43.739 14.8936 44.2006 14.25C44.6147 13.6569 45.1472 13.1544 45.7652 12.7742C46.3665 12.4173 47.0554 12.2319 47.7557 12.2376C48.7305 12.2376 49.446 12.5087 49.9019 13.0507C50.3733 13.6349 50.619 14.3679 50.5941 15.116C50.6047 15.5043 50.5449 15.8913 50.4179 16.2584L53.8788 15.4453C52.6214 12.1928 48.4274 11.7456 47.6615 11.7456C41.0183 11.6399 37.3731 17.844 39.5192 22.8975C40.8331 25.9483 43.8521 27.9506 47.1946 27.9876C48.581 28.0165 49.9539 27.7128 51.1961 27.1013C52.4224 26.5 53.4807 25.6076 54.2761 24.5034L54.0631 24.0115Z" fill="white"/>
<path d="M74.3501 24.7345V4L69.4352 5.18715H69.4024V5.64656C69.5745 5.64656 71.0612 6.05312 71.0612 7.06951V24.6613C71.0612 26.8811 69.4803 27.2023 68.4113 27.2714V27.6413H77V27.2714C75.9351 27.2023 74.3869 26.877 74.3501 24.7345Z" fill="white"/>
<path d="M14.9412 4L10.0755 5.18308H10.0386V5.54085C10.2106 5.54085 11.6564 6.04905 11.2673 6.96381C9.42016 11.0213 3.42812 24.5637 3.11275 25.1735C2.07653 27.2063 0.606167 27.2063 0 27.2714V27.6413H7.61805V27.2632C7.61805 27.2632 4.72646 27.2958 4.72646 25.7956C4.72646 24.8849 6.2214 21.3031 6.62688 20.3233L16.5508 17.9205C16.5754 17.9815 19.2458 24.4011 19.2458 25.7549C19.2458 27.2185 16.8744 27.2632 16.7884 27.2632V27.6332H26.7287V27.2632C25.289 27.2876 23.9674 26.4534 23.3784 25.1491C23.0794 24.5637 14.9412 4 14.9412 4ZM16.2068 17.0912L7.04464 19.311C7.09379 19.1931 12.0783 7.59804 12.2175 7.30532C12.4264 7.78912 16.2027 17.0912 16.2027 17.0912H16.2068Z" fill="white"/>
</svg>
