<svg width="112" height="32" viewBox="0 0 112 32" fill="none" xmlns="http://www.w3.org/2000/svg">
<path d="M5.36522 6L1.61299 7.086L1.09144 7.6L0 11.3227L14.7935 26L18.5457 24.9173L19.0666 24.4027L20.158 20.6773L5.36522 6Z" fill="white"/>
<path d="M19.0666 7.6L18.5457 7.086L14.7935 6L0 20.6773L1.09144 24.4027L1.61232 24.9173L5.36455 26L20.1587 11.3227L19.0666 7.6Z" fill="white"/>
<path d="M28.429 9.62095H34.5419C36.6298 9.62095 38.1776 10.1034 39.1859 11.0668C40.1942 12.031 40.6977 13.5268 40.6977 15.5542V16.4536C40.6977 18.4818 40.1942 19.9776 39.1859 20.941C38.1776 21.9052 36.6298 22.3869 34.5419 22.3869H28.429V9.62095ZM34.5419 19.3771C35.6508 19.3771 36.424 19.1167 36.8636 18.5958C37.3032 18.0749 37.5226 17.2639 37.5226 16.1649V15.5542C37.5226 14.5975 37.3032 13.8729 36.8636 13.3804C36.4246 12.8878 35.6508 12.6416 34.5419 12.6416H31.604V19.3886L34.5419 19.3771ZM45.4714 16.1331C45.4714 13.962 46.0225 12.2772 47.1245 11.0776C48.2252 9.87868 49.7451 9.2782 51.6822 9.2782C53.6254 9.2782 55.1453 9.87868 56.2399 11.0776C57.3338 12.2772 57.8848 13.962 57.8923 16.1325V15.8862C57.8923 18.1208 57.342 19.8197 56.2399 20.9842C55.1379 22.1481 53.6186 22.7297 51.6822 22.7297C49.7376 22.7297 48.2184 22.1481 47.1245 20.9842C46.0299 19.8204 45.4789 18.1208 45.4714 15.8862V16.1331ZM51.6815 19.8595C52.1788 19.8751 52.6734 19.7799 53.1287 19.5809C53.5052 19.4054 53.8286 19.1355 54.0691 18.7995C54.3205 18.4393 54.4937 18.0304 54.5766 17.5999C54.6752 17.0953 54.7227 16.5825 54.7166 16.0684V15.9294C54.7187 15.428 54.6607 14.9281 54.544 14.4403C54.4469 14.0106 54.2672 13.6035 54.0147 13.2414C53.7707 12.9028 53.4485 12.6273 53.0751 12.4378C52.6357 12.2399 52.1589 12.1375 51.6764 12.1375C51.194 12.1375 50.7171 12.2399 50.2778 12.4378C49.9041 12.6267 49.5821 12.9027 49.3381 13.2407C49.0854 13.6029 48.9057 14.0103 48.8089 14.4403C48.6921 14.9281 48.6341 15.428 48.6363 15.9294V16.0684C48.6308 16.5825 48.6777 17.0953 48.7769 17.5999C48.8591 18.0304 49.0324 18.4393 49.2845 18.7995C49.5243 19.1362 49.8484 19.4054 50.2241 19.5809C50.6829 19.7815 51.1806 19.8768 51.6815 19.8595ZM65.6685 9.62095L68.5086 14.472H69.0814L71.9214 9.62095H75.3676L71.9004 15.7688V16.1966L75.3676 22.397H71.9221L69.0821 17.4927H68.5093L65.6685 22.3977H62.2238L65.6903 16.1972V15.7688L62.2231 9.62095H65.6685ZM80.4437 9.62095H91.3739V12.6416H83.6187V14.4835H90.7902V17.5035H83.6187V19.3886H91.3739V22.4085H80.4437V9.62095ZM97.0438 9.62095H100.219V19.3771H109V22.3977H97.0438V9.62095Z" fill="white"/>
</svg>
