<svg width="132" height="32" viewBox="0 0 132 32" fill="none" xmlns="http://www.w3.org/2000/svg">
<path d="M125.793 7.46897V10.8537H128V13.0803H125.793V19.1276H127.881V21.3142C127.476 21.4025 127.062 21.4436 126.649 21.4368C124.482 21.4368 123.408 20.2722 123.408 17.943V7.46897H125.793Z" fill="white"/>
<path d="M118.906 12.3458V10.8523H121.29V21.1483H118.906V19.6567C118.568 20.656 117.356 21.3727 115.706 21.3727C115.037 21.3855 114.374 21.2558 113.758 20.9921C113.142 20.7283 112.587 20.3363 112.128 19.8411C111.173 18.8038 110.657 17.4232 110.696 16.0003C110.676 15.2985 110.791 14.5995 111.037 13.9436C111.283 13.2878 111.653 12.6882 112.128 12.1795C112.583 11.6776 113.137 11.2797 113.753 11.0121C114.37 10.7445 115.035 10.6133 115.706 10.627C117.355 10.628 118.568 11.3465 118.906 12.3458ZM118.193 18.2505C118.486 17.9594 118.717 17.6093 118.87 17.2226C119.023 16.8359 119.096 16.4209 119.084 16.004C119.091 15.5911 119.018 15.1809 118.867 14.7976C118.716 14.4143 118.492 14.0656 118.207 13.7721C117.923 13.4786 117.583 13.2462 117.209 13.0886C116.834 12.931 116.433 12.8514 116.028 12.8545C115.632 12.8463 115.238 12.922 114.873 13.0768C114.506 13.2316 114.175 13.4621 113.901 13.7538C113.623 14.0538 113.407 14.4068 113.264 14.7925C113.121 15.1782 113.053 15.589 113.066 16.0013C113.053 16.4134 113.121 16.824 113.264 17.2095C113.407 17.5951 113.623 17.948 113.901 18.2478C114.175 18.5394 114.506 18.77 114.873 18.9248C115.238 19.0796 115.632 19.1553 116.028 19.1471C116.43 19.1552 116.828 19.0798 117.2 18.9257C117.572 18.7715 117.908 18.5418 118.191 18.2505H118.193Z" fill="white"/>
<path d="M30.6378 21.1465V10.8523H33.0031V12.3848C33.2758 11.827 33.7048 11.3643 34.2355 11.0553C34.7662 10.7463 35.3749 10.6048 35.9845 10.6488C36.2234 10.6455 36.462 10.6662 36.6969 10.7106V13.0798C36.3697 13.0124 36.0369 12.9784 35.7031 12.978C35.341 12.9499 34.9772 13.0019 34.6366 13.1305C34.2961 13.2591 33.9868 13.4614 33.73 13.7233C33.4733 13.9852 33.275 14.3007 33.1489 14.6481C33.0228 14.9955 32.9718 15.3666 32.9995 15.736V21.1465H30.6378Z" fill="white"/>
<path d="M37.2965 16C37.283 15.2757 37.4174 14.5564 37.6913 13.888C37.9651 13.2196 38.3722 12.6166 38.8869 12.1174C39.9345 11.1073 41.3214 10.5444 42.763 10.5444C44.2046 10.5444 45.5914 11.1073 46.639 12.1174C47.1537 12.6166 47.5609 13.2196 47.8348 13.888C48.1086 14.5564 48.243 15.2757 48.2295 16C48.2429 16.7241 48.1084 17.4429 47.8346 18.1111C47.5607 18.7792 47.1536 19.3819 46.639 19.8808C45.5914 20.8909 44.2046 21.4538 42.763 21.4538C41.3214 21.4538 39.9345 20.8909 38.8869 19.8808C38.3721 19.3821 37.9648 18.7794 37.691 18.1113C37.4172 17.4432 37.2828 16.7241 37.2965 16ZM44.9657 18.3092C45.2579 18.0048 45.4873 17.6436 45.6402 17.2472C45.7932 16.8506 45.8667 16.4269 45.8562 16.001C45.8686 15.5777 45.7959 15.1564 45.6428 14.7629C45.4897 14.3694 45.2592 14.012 44.9657 13.7126C44.6752 13.4149 44.3298 13.1786 43.9496 13.0173C43.5693 12.8561 43.1615 12.7731 42.7497 12.7731C42.3378 12.7731 41.93 12.8561 41.5497 13.0173C41.1694 13.1786 40.8241 13.4149 40.5335 13.7126C40.2461 14.0157 40.0207 14.3741 39.8705 14.767C39.7204 15.1599 39.6485 15.5794 39.6591 16.001C39.641 16.8579 39.9553 17.6875 40.5335 18.3092C41.1266 18.8986 41.9218 19.2284 42.7497 19.2284C43.5775 19.2284 44.3727 18.8986 44.9657 18.3092Z" fill="white"/>
<path d="M58.1478 11.5684V14.0212C57.7421 13.6124 57.261 13.29 56.7322 13.0724C56.2034 12.8549 55.6375 12.7466 55.0674 12.7539C54.6395 12.7396 54.2132 12.8132 53.8138 12.9704C53.4144 13.1275 53.0499 13.365 52.7422 13.6687C52.4411 13.9677 52.2043 14.3273 52.0469 14.7247C51.8895 15.1221 51.8148 15.5485 51.8277 15.977C51.8148 16.4055 51.8895 16.8319 52.0469 17.2293C52.2043 17.6267 52.4411 17.9864 52.7422 18.2852C53.0491 18.5906 53.4129 18.8298 53.8122 18.9887C54.2116 19.1476 54.6381 19.2228 55.0665 19.21C55.6376 19.2206 56.2049 19.1133 56.7344 18.8948C57.2639 18.6763 57.7446 18.3509 58.1478 17.9383V20.391C57.2285 21.1143 56.0884 21.4834 54.9285 21.4329C54.2103 21.4537 53.4952 21.3271 52.8259 21.0604C52.1566 20.7937 51.5467 20.3924 51.0325 19.8805C50.5167 19.3782 50.1102 18.7709 49.8396 18.0978C49.5689 17.4249 49.4401 16.7013 49.4616 15.9743C49.4397 15.2471 49.5684 14.5235 49.839 13.8504C50.1097 13.1774 50.5163 12.5701 51.0325 12.0681C51.5467 11.5561 52.1566 11.1549 52.8259 10.8882C53.4952 10.6214 54.2103 10.4947 54.9285 10.5156C56.0885 10.4769 57.226 10.8489 58.1478 11.5684Z" fill="white"/>
<path d="M59.915 21.1498V7.46897H62.2786V15.245L65.6625 10.8528H68.3662L64.5689 15.7764L68.6832 21.1488H65.9003L62.2786 16.3888V21.1498H59.915Z" fill="white"/>
<path d="M68.7408 16.0004C68.7073 15.2827 68.8188 14.5656 69.0683 13.8936C69.3179 13.2216 69.7001 12.6092 70.1915 12.0942C70.6816 11.5975 71.2664 11.2088 71.9098 10.9523C72.5532 10.6957 73.2413 10.5767 73.9317 10.6026C74.5892 10.5755 75.2446 10.6949 75.8522 10.9526C76.4599 11.2102 77.0052 11.5998 77.4501 12.0942C77.903 12.5819 78.2572 13.1558 78.4925 13.7832C78.7279 14.4106 78.8396 15.0791 78.8215 15.7507C78.8215 16.0568 78.8019 16.3638 78.7815 16.629H71.1088C71.1219 17.0117 71.2122 17.3876 71.3739 17.7332C71.5357 18.0788 71.7654 18.3868 72.0488 18.6379C72.3323 18.889 72.6632 19.0779 73.0213 19.1929C73.3794 19.3078 73.7569 19.3464 74.1302 19.3061C75.434 19.4017 76.7235 18.9785 77.728 18.1252V20.4135C76.6319 21.1442 75.3398 21.5084 74.0314 21.4555C73.3296 21.4836 72.6295 21.3698 71.9711 21.1202C71.3128 20.8708 70.7094 20.4907 70.1959 20.002C69.7045 19.4872 69.3222 18.8747 69.0726 18.2027C68.823 17.5307 68.7117 16.8135 68.7453 16.0958V15.9941L68.7408 16.0004ZM76.3931 14.8976C76.3932 14.6014 76.3295 14.3087 76.2064 14.0404C76.0833 13.7721 75.9038 13.5348 75.6807 13.3451C75.1995 12.9098 74.5747 12.6761 73.9317 12.6911C73.2411 12.679 72.5674 12.91 72.0242 13.3451C71.7767 13.5229 71.5711 13.7545 71.4223 14.0234C71.2736 14.2922 71.1853 14.5915 71.1639 14.8994L76.3931 14.8976Z" fill="white"/>
<path d="M80.6131 7.46897H82.9979V10.8537H85.2047V13.0803H82.9997V19.1276H85.0871V21.3142C84.6822 21.4025 84.2686 21.4436 83.8545 21.4368C81.688 21.4368 80.6149 20.2722 80.6149 17.943V7.46897H80.6131Z" fill="white"/>
<path d="M87.5651 18.449C87.2805 18.448 87.0021 18.533 86.7651 18.6935C86.528 18.8539 86.3429 19.0825 86.2334 19.3504C86.1238 19.6181 86.0945 19.9131 86.1494 20.198C86.2042 20.4827 86.3407 20.7445 86.5414 20.95C86.7423 21.1556 86.9983 21.2958 87.2773 21.3528C87.5563 21.4098 87.8456 21.3811 88.1084 21.2704C88.3714 21.1595 88.5962 20.9716 88.7544 20.7303C88.9125 20.4891 88.997 20.2054 88.997 19.9152C88.9974 19.7231 88.9606 19.5326 88.8888 19.355C88.817 19.1773 88.7117 19.0158 88.5787 18.8796C88.4457 18.7435 88.2878 18.6354 88.1139 18.5614C87.9399 18.4876 87.7534 18.4494 87.5651 18.449Z" fill="white"/>
<path d="M98.3517 11.5677V14.0205C97.946 13.6118 97.4649 13.2893 96.9361 13.0717C96.4074 12.8542 95.8415 12.7459 95.2714 12.7532C94.8431 12.7395 94.4167 12.8138 94.0172 12.9717C93.6177 13.1297 93.2535 13.368 92.9463 13.6725C92.6451 13.9715 92.4083 14.3311 92.2508 14.7285C92.0934 15.1259 92.0187 15.5524 92.0317 15.9808C92.0187 16.4093 92.0934 16.8357 92.2508 17.2332C92.4083 17.6305 92.6451 17.9902 92.9463 18.2891C93.2529 18.5933 93.6164 18.8314 94.015 18.9894C94.4137 19.1475 94.8394 19.2223 95.267 19.2093C95.8375 19.2204 96.4045 19.114 96.9338 18.8962C97.4631 18.6785 97.9439 18.354 98.3473 17.9421V20.3949C97.4281 21.1182 96.2879 21.4873 95.128 21.4368C94.4098 21.4576 93.6947 21.331 93.0253 21.0643C92.3561 20.7976 91.7462 20.3963 91.232 19.8843C90.7161 19.3821 90.3096 18.7748 90.039 18.1017C89.7683 17.4288 89.6396 16.7052 89.6611 15.9781C89.6392 15.251 89.7679 14.5273 90.0385 13.8543C90.3092 13.1812 90.7158 12.5739 91.232 12.0719C91.7462 11.5599 92.3561 11.1586 93.0253 10.8919C93.6947 10.6252 94.4098 10.4985 95.128 10.5194C96.2891 10.4784 97.4282 10.8488 98.3517 11.5677Z" fill="white"/>
<path d="M100.121 21.1498V7.46897H102.486V12.2836C102.772 11.7569 103.198 11.3237 103.715 11.0342C104.233 10.7448 104.819 10.611 105.408 10.6484C107.714 10.6484 109.065 12.2218 109.065 14.7754V21.1498H106.7V15.1224C106.7 13.7125 105.965 12.8341 104.694 12.8341C104.391 12.8297 104.09 12.8896 103.811 13.0101C103.533 13.1305 103.281 13.3087 103.074 13.5335C102.866 13.7583 102.707 14.0247 102.606 14.3158C102.505 14.6068 102.464 14.9162 102.486 15.2241V21.1498H100.121Z" fill="white"/>
<path d="M23.8197 12.2828C23.1168 11.1892 22.197 10.258 21.1196 9.54935C18.6753 7.9847 15.8379 7.17863 12.9526 7.22926C11.9444 7.22786 10.9383 7.31908 9.9462 7.50178C9.3274 6.88896 8.63323 6.3607 7.88107 5.93022C6.88891 5.4044 5.80074 5.09387 4.68513 5.0182C3.56952 4.94253 2.45063 5.10336 1.39895 5.49055C1.30558 5.5259 1.22221 5.58423 1.15626 5.66036C1.09031 5.73649 1.04381 5.82806 1.0209 5.92693C0.997989 6.02581 0.999376 6.12892 1.02494 6.22712C1.0505 6.32531 1.09944 6.41555 1.16742 6.4898C2.04192 7.42548 3.49347 9.26956 3.13725 10.9401C1.80239 12.2685 1.03449 14.0799 1 15.9819C1.02745 17.8954 1.79576 19.7203 3.13725 21.0581C3.49347 22.7324 2.04548 24.5737 1.17098 25.5094C1.10279 25.5836 1.05365 25.6737 1.02797 25.772C1.00228 25.8702 1.00083 25.9735 1.02376 26.0723C1.04669 26.1713 1.09328 26.2629 1.15937 26.3391C1.22546 26.4152 1.30899 26.4735 1.40252 26.5086C2.45421 26.8962 3.57319 27.0573 4.68895 26.982C5.80472 26.9066 6.8931 26.5963 7.88553 26.0708C8.63834 25.6401 9.33312 25.1115 9.95244 24.4983C10.9445 24.681 11.9507 24.7722 12.9589 24.7708C15.8441 24.822 18.6815 24.0162 21.1258 22.4516C22.2017 21.7421 23.1197 20.8103 23.8205 19.7164C24.5309 18.6117 24.9092 17.3193 24.9092 15.9982C24.9092 14.6771 24.5309 13.3848 23.8205 12.2801L23.8197 12.2828ZM12.8288 22.6124C11.5686 22.6162 10.3133 22.45 9.09575 22.1183L8.25599 22.9512C7.78992 23.4098 7.26902 23.8066 6.70558 24.1321C6.02095 24.4842 5.27688 24.7 4.51311 24.7681C4.55408 24.6917 4.59148 24.6145 4.63156 24.5383C5.02556 23.9063 5.28916 23.1989 5.40629 22.4596C5.52343 21.7202 5.49161 20.9643 5.3128 20.2378C4.66434 19.7721 4.12881 19.1614 3.74712 18.4523C3.36544 17.7432 3.1477 16.9543 3.11054 16.1462C3.11054 12.5762 7.46164 9.68107 12.8288 9.68107C18.1961 9.68107 22.5507 12.5753 22.5507 16.1462C22.5507 19.7173 18.1969 22.6124 12.8288 22.6124Z" fill="white"/>
<path d="M8.17733 14.66C7.89284 14.6589 7.61442 14.744 7.37736 14.9044C7.14029 15.0649 6.95524 15.2935 6.84563 15.5613C6.73603 15.8292 6.7068 16.1241 6.76166 16.4089C6.81651 16.6936 6.95298 16.9554 7.15378 17.1609C7.35457 17.3666 7.61066 17.5067 7.88961 17.5637C8.16857 17.6208 8.45784 17.5921 8.72078 17.4813C8.98373 17.3705 9.20852 17.1825 9.3667 16.9413C9.52487 16.7001 9.60929 16.4164 9.6093 16.1261C9.60965 15.934 9.57289 15.7436 9.50111 15.5659C9.42934 15.3882 9.32396 15.2267 9.191 15.0906C9.05802 14.9544 8.90006 14.8463 8.72614 14.7724C8.55222 14.6985 8.36573 14.6603 8.17733 14.66Z" fill="white"/>
<path d="M12.7899 14.66C12.5054 14.6589 12.227 14.744 11.99 14.9044C11.7529 15.0649 11.5678 15.2935 11.4583 15.5613C11.3487 15.8292 11.3194 16.1241 11.3743 16.4089C11.4291 16.6936 11.5656 16.9554 11.7664 17.1609C11.9672 17.3666 12.2232 17.5067 12.5023 17.5637C12.7812 17.6208 13.0705 17.5921 13.3334 17.4813C13.5964 17.3705 13.8212 17.1825 13.9793 16.9413C14.1375 16.7001 14.2219 16.4164 14.2219 16.1261C14.2223 15.934 14.1855 15.7436 14.1137 15.5659C14.042 15.3882 13.9366 15.2267 13.8036 15.0906C13.6706 14.9544 13.5127 14.8463 13.3388 14.7724C13.1648 14.6985 12.9784 14.6603 12.7899 14.66Z" fill="white"/>
<path d="M17.3993 14.66C17.1147 14.6585 16.8361 14.7433 16.5989 14.9035C16.3615 15.0638 16.1762 15.2923 16.0663 15.56C15.9564 15.8279 15.9269 16.1229 15.9816 16.4077C16.0362 16.6926 16.1726 16.9545 16.3733 17.1604C16.574 17.3661 16.8301 17.5065 17.1091 17.5636C17.3881 17.6208 17.6775 17.5922 17.9406 17.4815C18.2036 17.3707 18.4285 17.1828 18.5867 16.9415C18.745 16.7003 18.8295 16.4165 18.8295 16.1262C18.8302 15.7384 18.68 15.3661 18.4118 15.0912C18.1436 14.8163 17.7794 14.6612 17.3993 14.66Z" fill="white"/>
</svg>
