<svg width="112" height="32" viewBox="0 0 112 32" fill="none" xmlns="http://www.w3.org/2000/svg">
<path d="M111.586 6H91.4645C91.2357 6 91.0503 6.18545 91.0503 6.41421V26.5354C91.0503 26.7642 91.2357 26.9496 91.4645 26.9496H111.586C111.814 26.9496 112 26.7642 112 26.5354V6.41421C112 6.18545 111.814 6 111.586 6Z" fill="white"/>
<path d="M101.021 13.4895V18.035H103.708C103.77 18.035 103.83 18.0601 103.874 18.1047C103.918 18.1493 103.942 18.2098 103.942 18.2728V19.46C103.942 19.523 103.918 19.5835 103.874 19.6281C103.83 19.6727 103.77 19.6978 103.708 19.6978H99.3387C99.2772 19.6968 99.2185 19.6714 99.1753 19.6269C99.1321 19.5824 99.1079 19.5224 99.1079 19.46V13.4895C99.1084 13.4263 99.1334 13.3658 99.1776 13.3212C99.2218 13.2767 99.2816 13.2517 99.3438 13.2517H100.785C100.847 13.2517 100.907 13.2768 100.951 13.3214C100.994 13.3659 101.019 13.4264 101.019 13.4895" fill="black"/>
<path d="M89.0247 6H68.9035C68.6747 6 68.4893 6.18545 68.4893 6.41421V26.5354C68.4893 26.7642 68.6747 26.9496 68.9035 26.9496H89.0247C89.2534 26.9496 89.4389 26.7642 89.4389 26.5354V6.41421C89.4389 6.18545 89.2534 6 89.0247 6Z" fill="white"/>
<path d="M79.9408 13.2517L82.9786 19.4915C82.9894 19.5134 82.9942 19.5375 82.9925 19.5616C82.9909 19.5857 82.9828 19.609 82.9691 19.6293C82.9553 19.6497 82.9364 19.6665 82.914 19.6781C82.8916 19.6898 82.8664 19.6959 82.8408 19.696H81.0031C80.9434 19.6971 80.8848 19.6811 80.8349 19.6501C80.7851 19.6192 80.7463 19.5748 80.7237 19.5227L80.4389 18.8779H77.4985L77.2026 19.5244C77.1795 19.5758 77.1409 19.6197 77.0915 19.6505C77.0422 19.6813 76.9843 19.6978 76.9251 19.6978H75.0874C75.0618 19.6977 75.0366 19.6915 75.0142 19.6799C74.9918 19.6682 74.9728 19.6514 74.9591 19.6311C74.9454 19.6107 74.9373 19.5874 74.9356 19.5633C74.934 19.5392 74.9387 19.5151 74.9495 19.4932L78.0241 13.2534L79.9408 13.2517ZM79.6762 17.2954L78.9632 15.5154L78.2428 17.2954H79.6762Z" fill="black"/>
<path d="M66.061 6.61493C66.0601 6.45182 65.9947 6.29569 65.8793 6.18053C65.7638 6.06536 65.6075 6.00048 65.4445 6H45.7334C45.5711 6.00144 45.416 6.0668 45.3016 6.18192C45.1872 6.29703 45.1228 6.45262 45.1223 6.61493V26.3329C45.1228 26.496 45.1877 26.6523 45.3028 26.7678C45.4179 26.8833 45.574 26.9487 45.737 26.9496H60.4173L66.072 21.293L66.061 6.61493Z" fill="white"/>
<path opacity="0.3" d="M60.8066 21.5134L55.5972 26.9496H60.6652L66.072 21.3093L60.8066 21.5134Z" fill="white"/>
<path d="M66.0719 21.3093H61.0456C60.8829 21.3098 60.727 21.3746 60.612 21.4897C60.497 21.6047 60.4321 21.7606 60.4316 21.9233V26.9496L66.0719 21.3093Z" fill="#676774"/>
<path d="M55.8513 13.2517C56.1674 13.2589 56.4821 13.2943 56.7913 13.3575C57.1218 13.4239 57.4349 13.5526 57.712 13.7361C57.9892 13.9195 58.2248 14.1539 58.4048 14.4255C59.0035 15.3391 58.8867 16.6793 57.8408 17.3537C57.7295 17.4248 57.6218 17.5011 57.4885 17.5895C57.5196 17.6415 58.4705 19.0459 58.8009 19.533C58.8123 19.5489 58.819 19.5674 58.82 19.5865C58.8211 19.6057 58.8166 19.6248 58.8069 19.6416C58.7973 19.6585 58.7829 19.6725 58.7654 19.6821C58.7479 19.6917 58.728 19.6965 58.7078 19.696H56.6215C56.5802 19.696 56.5396 19.6859 56.5035 19.6668C56.4674 19.6477 56.437 19.6202 56.4153 19.5868L55.3074 17.9467H54.4258V19.4568C54.4265 19.4882 54.4206 19.5194 54.4085 19.5486C54.3963 19.5778 54.3781 19.6044 54.355 19.6269C54.3319 19.6493 54.3043 19.6671 54.2738 19.6793C54.2433 19.6915 54.2106 19.6978 54.1775 19.6978H52.6206C52.5882 19.6978 52.5562 19.6917 52.5263 19.6799C52.4964 19.6682 52.4692 19.6509 52.4463 19.6292C52.4235 19.6075 52.4053 19.5817 52.3929 19.5533C52.3805 19.5249 52.3742 19.4944 52.3742 19.4637V13.491C52.3737 13.4599 52.3797 13.429 52.3918 13.4001C52.404 13.3712 52.422 13.3448 52.4449 13.3226C52.4678 13.3004 52.4952 13.2827 52.5253 13.2705C52.5554 13.2583 52.5878 13.2519 52.6206 13.2517H55.8513ZM54.4385 16.3724H55.8659C55.9955 16.3706 56.1231 16.3422 56.2401 16.2892C56.3678 16.2285 56.4744 16.134 56.5469 16.0172C56.6194 15.9003 56.6549 15.766 56.6489 15.6304C56.6581 15.5039 56.627 15.3777 56.5596 15.2682C56.4922 15.1587 56.3917 15.0711 56.2711 15.0167C56.1302 14.9421 55.9704 14.9061 55.8093 14.9126H54.4458C54.4458 15.4067 54.4458 16.3742 54.4458 16.3742" fill="black"/>
<path d="M43.0966 6H22.9754C22.7466 6 22.5612 6.18545 22.5612 6.41421V26.5354C22.5612 26.7642 22.7466 26.9496 22.9754 26.9496H43.0966C43.3253 26.9496 43.5108 26.7642 43.5108 26.5354V6.41421C43.5108 6.18545 43.3253 6 43.0966 6Z" fill="white"/>
<path d="M36.8142 13.2517C36.8469 13.2512 36.8794 13.2574 36.9098 13.27C36.9402 13.2826 36.9678 13.3013 36.9912 13.325C37.0145 13.3487 37.033 13.377 37.0456 13.4081C37.0583 13.4393 37.0648 13.4727 37.0648 13.5065V17.2193C37.066 18.0795 36.7384 18.9056 36.1532 19.5182C35.6429 20.0167 34.9932 20.3364 34.2967 20.432C33.871 20.5046 33.4381 20.522 33.0082 20.4838C32.1078 20.4129 31.2835 20.1313 30.6449 19.4263C30.2275 18.9655 29.959 18.3825 29.8763 17.7576C29.8321 17.4179 29.811 17.0754 29.8131 16.7327C29.8131 15.9032 29.8131 14.1636 29.8131 13.5104C29.8131 13.4767 29.8196 13.4435 29.8321 13.4124C29.8446 13.3814 29.863 13.3532 29.8861 13.3295C29.9092 13.3058 29.9367 13.2871 29.9669 13.2744C29.997 13.2617 30.0293 13.2553 30.0619 13.2556H31.6363C31.6691 13.2548 31.7017 13.2608 31.7323 13.2731C31.7629 13.2854 31.7908 13.3038 31.8145 13.3274C31.8381 13.3509 31.857 13.379 31.8701 13.41C31.8832 13.4411 31.8901 13.4746 31.8906 13.5085C31.8906 14.1579 31.8906 15.8763 31.8906 16.6963C31.8841 17.0704 31.9471 17.4424 32.0763 17.7921C32.1871 18.086 32.3949 18.3302 32.6629 18.4818C33.0265 18.6692 33.4416 18.7213 33.8381 18.6293C34.088 18.5932 34.3211 18.4789 34.5061 18.3018C34.691 18.1247 34.8188 17.8933 34.8722 17.6388C34.921 17.4436 34.9459 17.2428 34.9465 17.0411C34.9465 16.1292 34.9465 14.2 34.9465 13.5065C34.9474 13.4386 34.9743 13.3738 35.0212 13.3261C35.0681 13.2785 35.1313 13.2517 35.1971 13.2517H36.8142Z" fill="black"/>
<path d="M20.5354 6H0.414212C0.185449 6 0 6.18545 0 6.41421V26.5354C0 26.7642 0.185449 26.9496 0.414212 26.9496H20.5354C20.7642 26.9496 20.9496 26.7642 20.9496 26.5354V6.41421C20.9496 6.18545 20.7642 6 20.5354 6Z" fill="white"/>
<path d="M14.5036 13.4667V19.4689C14.5031 19.5258 14.4796 19.5802 14.4382 19.6204C14.3967 19.6606 14.3407 19.6834 14.2821 19.6839H12.6741C12.6154 19.6839 12.559 19.6612 12.5175 19.6209C12.4759 19.5806 12.4526 19.5259 12.4526 19.4689C12.4526 18.765 12.4526 16.5649 12.4526 16.4782L10.4784 19.1169C10.3462 18.9436 8.5453 16.4955 8.44882 16.343C8.44882 16.4557 8.44882 18.7702 8.44882 19.4845C8.44835 19.5412 8.4248 19.5955 8.38331 19.6354C8.34181 19.6753 8.28573 19.6978 8.22728 19.6978H6.66758C6.60883 19.6978 6.55248 19.6751 6.51093 19.6348C6.46939 19.5945 6.44604 19.5398 6.44604 19.4828V13.4719C6.44651 13.415 6.47 13.3606 6.51145 13.3204C6.55289 13.2802 6.60897 13.2574 6.66758 13.2569H8.09686C8.13166 13.2572 8.1659 13.2654 8.1969 13.2807C8.2279 13.2961 8.25481 13.3182 8.27552 13.3453L10.4605 16.2632L12.6741 13.3401C12.6948 13.313 12.7217 13.2909 12.7527 13.2755C12.7837 13.2602 12.818 13.252 12.8528 13.2517H14.2821C14.3407 13.2522 14.3967 13.275 14.4382 13.3152C14.4796 13.3554 14.5031 13.4098 14.5036 13.4667" fill="black"/>
</svg>
