<svg width="114" height="32" viewBox="0 0 114 32" fill="none" xmlns="http://www.w3.org/2000/svg">
<path d="M5.77796 23.6707H1L3.30129 8.32931H12.5939L11.9363 12.6248H7.42165L7.22439 14.0275H11.739L11.0817 18.3231H6.56678L5.77796 23.6707Z" fill="white"/>
<path d="M18.2261 8.32931L16.6043 19.1779H21.7765L21.0973 23.6707H11.1252L13.4265 8.32931H18.2261Z" fill="white"/>
<path d="M38.1045 15.5179C38.1117 16.6668 37.8687 17.8035 37.3922 18.849C36.935 19.8614 36.2877 20.7766 35.4854 21.5448C34.6803 22.3102 33.7402 22.9196 32.7128 23.342C31.6718 23.7781 30.5541 24.0016 29.4255 23.9994C28.4008 24.0045 27.3849 23.8111 26.4338 23.4297C25.5157 23.0654 24.6753 22.5299 23.9573 21.8516C23.2469 21.1775 22.6771 20.3693 22.2806 19.4738C21.8669 18.5389 21.6577 17.5263 21.667 16.504C21.6597 15.355 21.9027 14.2182 22.3792 13.1727C23.3041 11.1246 24.9787 9.50887 27.0586 8.65799C28.0996 8.22185 29.2173 7.99827 30.3459 8.00039C31.3717 7.99548 32.3883 8.19286 33.3376 8.58124C34.2547 8.95244 35.0945 9.49131 35.8141 10.1702C36.5241 10.8447 37.0939 11.6528 37.4906 12.5481C37.9042 13.483 38.1135 14.4956 38.1045 15.5179ZM29.6227 19.3531C30.0988 19.3544 30.5696 19.2535 31.0033 19.0572C31.4296 18.8684 31.8163 18.6008 32.1432 18.2684C32.4673 17.9352 32.7273 17.5451 32.9101 17.1176C33.0994 16.6821 33.1965 16.212 33.1951 15.737C33.1992 15.3204 33.121 14.907 32.965 14.5207C32.8165 14.1557 32.5967 13.8241 32.3183 13.5453C32.0381 13.2661 31.7071 13.043 31.3432 12.8879C30.9586 12.7248 30.5445 12.6426 30.1268 12.6467C29.6469 12.6431 29.172 12.744 28.7351 12.9426C28.3112 13.1348 27.9281 13.4063 27.6064 13.7426C27.2844 14.0795 27.028 14.4734 26.8504 14.9043C26.6677 15.3415 26.5745 15.811 26.5764 16.2849C26.5723 16.7015 26.6505 17.1149 26.8064 17.5012C26.9518 17.8619 27.1679 18.1898 27.4419 18.4656C27.7288 18.7502 28.0693 18.9752 28.4436 19.1275C28.8179 19.2798 29.2186 19.3565 29.6227 19.3531Z" fill="white"/>
<path d="M40.5153 23.6707L37.5127 8.32931H42.3562L43.6054 16.7889L47.2873 8.32931H51.5172L52.6349 16.7889L56.4485 8.32931H61.4672L53.8622 23.6707H49.5886L48.4709 15.0357L44.7669 23.6707H40.5153Z" fill="white"/>
<path d="M69.2036 23.3639C68.7204 23.5984 68.2082 23.7679 67.6805 23.868C66.2472 24.141 64.7654 23.9886 63.4177 23.4297C62.5508 23.0667 61.7676 22.5296 61.1167 21.8516C60.4646 21.1656 59.9544 20.3575 59.6153 19.4738C59.2523 18.5338 59.07 17.5337 59.0782 16.5261C59.0635 14.8667 59.5365 13.2395 60.4385 11.8465C61.3405 10.4536 62.6317 9.35628 64.1519 8.69079C65.2116 8.22441 66.3585 7.98906 67.5162 8.00039C68.1998 8.00021 68.8808 8.08491 69.5435 8.25254C70.1877 8.41223 70.8044 8.66704 71.3735 9.00856L70.6063 13.9398C70.2508 13.5485 69.818 13.2351 69.3353 13.0193C68.8675 12.8149 68.305 12.7126 67.6477 12.7125C67.1378 12.7068 66.6317 12.7998 66.1573 12.9865C65.7229 13.1572 65.3277 13.4144 64.9958 13.7426C64.672 14.0674 64.4183 14.4553 64.2505 14.8822C64.0738 15.3286 63.9846 15.8048 63.9876 16.2848C63.9798 16.7135 64.0619 17.139 64.2286 17.534C64.3836 17.8912 64.6113 18.2122 64.8972 18.4766C65.1948 18.7471 65.5456 18.9524 65.9272 19.0793C66.3472 19.2211 66.788 19.2915 67.2313 19.2875C67.7263 19.2901 68.2185 19.2123 68.6886 19.0572C69.142 18.9073 69.5733 18.6972 69.9708 18.4326L69.2036 23.3639Z" fill="white"/>
<path d="M87.1753 15.5179C87.1825 16.6668 86.9394 17.8035 86.463 18.849C86.0058 19.8614 85.3585 20.7766 84.5562 21.5448C83.7511 22.3102 82.811 22.9196 81.7836 23.342C80.7426 23.7781 79.6249 24.0016 78.4963 23.9994C77.4716 24.0045 76.4557 23.8111 75.5046 23.4297C74.5865 23.0654 73.7461 22.5299 73.0281 21.8516C72.3177 21.1775 71.7478 20.3693 71.3514 19.4738C70.9377 18.5389 70.7285 17.5263 70.7378 16.504C70.7305 15.355 70.9735 14.2182 71.45 13.1727C72.3749 11.1246 74.0495 9.50887 76.1294 8.65799C77.1704 8.22185 78.2881 7.99827 79.4167 8.00039C80.4425 7.99548 81.4591 8.19286 82.4084 8.58124C83.3255 8.95244 84.1653 9.49131 84.8849 10.1702C85.5949 10.8447 86.1647 11.6528 86.5614 12.5481C86.975 13.483 87.1843 14.4956 87.1753 15.5179ZM78.6935 19.3531C79.1696 19.3544 79.6404 19.2535 80.0741 19.0572C80.5004 18.8684 80.8871 18.6008 81.214 18.2684C81.5381 17.9352 81.7981 17.5451 81.9809 17.1176C82.1702 16.6821 82.2672 16.212 82.2659 15.737C82.27 15.3204 82.1918 14.907 82.0358 14.5207C81.8873 14.1557 81.6675 13.8241 81.3891 13.5453C81.1089 13.2661 80.7779 13.043 80.414 12.8879C80.0294 12.7248 79.6153 12.6426 79.1976 12.6467C78.7177 12.6431 78.2428 12.744 77.8059 12.9426C77.382 13.1348 76.9989 13.4063 76.6772 13.7426C76.3552 14.0794 76.0988 14.4734 75.9212 14.9043C75.7385 15.3415 75.6453 15.811 75.6472 16.2849C75.6431 16.7015 75.7213 17.1148 75.8772 17.5012C76.0226 17.8619 76.2387 18.1898 76.5127 18.4656C76.7996 18.7502 77.1401 18.9752 77.5144 19.1275C77.8887 19.2798 78.2894 19.3565 78.6935 19.3531Z" fill="white"/>
<path d="M88.972 8.32931H94.1443C95.1245 8.32124 96.0965 8.50743 97.0043 8.87713C97.8609 9.2247 98.6424 9.73448 99.3056 10.3784C99.9593 11.0194 100.481 11.7827 100.84 12.6248C101.214 13.4969 101.405 14.4371 101.399 15.3862C101.41 16.5323 101.155 17.6653 100.653 18.6957C100.168 19.6888 99.4945 20.5783 98.6701 21.3147C97.8387 22.0561 96.8811 22.6425 95.8429 23.0461C94.8072 23.4579 93.7029 23.6699 92.5883 23.6707H86.6707L88.972 8.32931ZM96.5112 15.5616C96.5122 15.2017 96.4453 14.8449 96.3141 14.5097C96.1868 14.1806 95.9969 13.8792 95.7552 13.6221C95.5066 13.358 95.2058 13.1485 94.8719 13.007C94.5379 12.8655 94.1782 12.7951 93.8156 12.8002H93.0484L92.0842 19.1998H92.8293C93.3006 19.199 93.7667 19.1021 94.1992 18.9148C94.6377 18.7297 95.0387 18.466 95.3825 18.1367C95.7277 17.8053 96.0067 17.4111 96.2044 16.9753C96.4084 16.532 96.5131 16.0496 96.5112 15.5616Z" fill="white"/>
<path d="M103.195 8.32931H112.773L112.115 12.6248H107.316L107.14 13.918H111.94L111.305 18.0381H106.505L106.308 19.3752H111.151L110.516 23.6707H100.894L103.195 8.32931Z" fill="white"/>
</svg>
