<svg width="87" height="32" viewBox="0 0 87 32" fill="none" xmlns="http://www.w3.org/2000/svg">
<path d="M1 9.91204H6.05694L9.00154 17.6734L11.9844 9.91204H16.9081L9.49402 28.2857H4.53905L6.56854 23.417L1 9.91204Z" fill="white"/>
<path d="M22.0374 9.60306C18.2379 9.60306 15.8359 13.1137 15.8359 16.6098C15.8359 20.5439 18.4694 23.6629 21.9653 23.6629C24.5731 23.6629 25.5564 22.026 25.5564 22.026V23.3011H29.9671V9.91212H25.5564V11.1293C25.5564 11.1293 24.4594 9.60306 22.0374 9.60306ZM22.9755 13.9058C24.7287 13.9058 25.6334 15.3349 25.6334 16.6245C25.6334 18.0131 24.6641 19.3759 22.9755 19.3759C21.5761 19.3759 20.3114 18.1976 20.3114 16.6836C20.3114 15.1482 21.3286 13.9058 22.9755 13.9058Z" fill="white"/>
<path d="M31.4861 23.3011V4H36.0993V11.1757C36.0993 11.1757 37.195 9.60472 39.49 9.60472C42.2971 9.60472 43.9418 11.7596 43.9418 14.8387V23.3011H39.3623V15.998C39.3623 14.9559 38.8805 13.9492 37.7892 13.9492C36.6783 13.9492 36.0993 14.9712 36.0993 15.998V23.3011H31.4861Z" fill="white"/>
<path d="M51.8072 9.60465C47.4561 9.60465 44.8652 13.0134 44.8652 16.6655C44.8652 20.8217 48.0022 23.6629 51.8237 23.6629C55.5277 23.6629 58.7689 20.9506 58.7689 16.7352C58.7689 12.1228 55.3753 9.60465 51.8072 9.60465ZM51.8488 13.9452C53.3858 13.9452 54.4492 15.264 54.4492 16.6705C54.4492 17.87 53.4583 19.3496 51.8488 19.3496C50.374 19.3496 49.2672 18.1308 49.2672 16.6573C49.2672 15.2379 50.1874 13.9452 51.8488 13.9452Z" fill="white"/>
<path d="M66.4543 9.60465C62.1031 9.60465 59.5122 13.0134 59.5122 16.6655C59.5122 20.8217 62.6492 23.6629 66.4708 23.6629C70.1748 23.6629 73.4159 20.9506 73.4159 16.7352C73.4159 12.1228 70.0224 9.60465 66.4543 9.60465ZM66.4958 13.9452C68.0328 13.9452 69.0963 15.264 69.0963 16.6705C69.0963 17.87 68.1053 19.3496 66.4958 19.3496C65.0211 19.3496 63.9143 18.1308 63.9143 16.6573C63.9143 15.2379 64.8345 13.9452 66.4958 13.9452Z" fill="white"/>
<path d="M77.0561 23.5853C78.7479 23.5853 80.1195 22.1723 80.1195 20.4293C80.1195 18.6862 78.7479 17.2732 77.0561 17.2732C75.3642 17.2732 73.9927 18.6862 73.9927 20.4293C73.9927 22.1723 75.3642 23.5853 77.0561 23.5853Z" fill="white"/>
<path d="M81.1261 16.1139H75.6112L80.5057 4H86L81.1261 16.1139Z" fill="white"/>
</svg>
