<svg width="134" height="32" viewBox="0 0 134 32" fill="none" xmlns="http://www.w3.org/2000/svg">
<g clip-path="url(#clip0_1660_12229)">
<path d="M32.1719 20.9599L33.2726 19.0902C34.1899 19.7339 35.5046 20.1017 36.7582 20.1017C37.7978 20.1017 38.4399 19.7645 38.4399 19.1821C38.4399 18.5691 37.8895 18.2932 36.5442 18.2013C34.0064 17.9867 32.5082 16.8832 32.5082 15.1054C32.5082 13.2663 34.2204 12.0095 36.8499 12.0095C38.3787 12.0095 39.7546 12.4387 40.7942 13.113L39.724 14.9521C38.8985 14.431 37.9812 14.1858 36.9722 14.1858C35.7492 14.1858 35.1071 14.4923 35.1071 15.1054C35.1071 15.6571 35.5963 15.933 36.8193 16.0556C39.6629 16.3315 41.0388 17.3123 41.0388 19.2128C41.0388 21.1132 39.3571 22.3699 36.6359 22.3699C34.9542 22.3393 33.4255 21.8489 32.1719 20.9599Z" fill="white"/>
<path d="M42.5352 9.49295C42.5352 8.57338 43.2078 7.92969 44.1557 7.92969C45.1035 7.92969 45.7762 8.57338 45.7762 9.49295C45.7762 10.3819 45.0729 10.9949 44.1557 10.9949C43.2384 10.9949 42.5352 10.3819 42.5352 9.49295ZM42.8103 12.2516H45.4398V22.091H42.8103V12.2516Z" fill="white"/>
<path d="M57.6748 16.6043V22.091H55.0453V16.7575C55.0453 15.2556 54.2198 14.3667 52.905 14.3667C51.468 14.3667 50.5201 15.4088 50.5201 16.9414V22.091H47.8906V12.2517H50.1838L50.3672 13.3858C51.1316 12.5275 52.2935 12.0371 53.5777 12.0371C56.0543 12.0371 57.6748 13.8149 57.6748 16.6043Z" fill="white"/>
<path d="M67.7006 20.6494C69.1376 21.2624 69.9326 22.3353 69.9326 23.7759C69.9326 26.2587 67.8534 27.8833 64.6124 27.8833C61.2797 27.8833 59.2006 26.0442 59.384 23.3468H61.9524C61.9218 24.7261 62.9308 25.5844 64.6124 25.5844C66.1718 25.5844 67.2419 24.8181 67.2419 23.7146C67.2419 22.5805 66.2941 21.9061 64.643 21.9061C61.3714 21.9061 59.2617 19.9751 59.2617 16.9711C59.2617 14.0898 61.4632 12.0055 64.5819 12.0055C65.4991 12.0055 66.3552 12.1894 67.0585 12.5879L68.2815 11.0859L70.1772 12.5266L68.8319 14.0898C69.5962 14.9788 69.902 15.837 69.902 16.9711C69.9631 18.5957 69.1682 19.8831 67.7006 20.6494ZM67.3642 16.9711C67.3642 15.3772 66.2941 14.3351 64.6736 14.3351C63.0531 14.3351 61.9829 15.3772 61.9829 16.9711C61.9829 18.5344 63.0837 19.6072 64.6736 19.6072C66.2941 19.6072 67.3642 18.5344 67.3642 16.9711Z" fill="white"/>
<path d="M81.5505 12.252V22.0913H79.2573L79.0738 20.9572C78.3095 21.8154 77.1782 22.3058 75.8634 22.3058C73.4174 22.3058 71.7969 20.5587 71.7969 17.7693V12.252H74.4264V17.5854C74.4264 19.0874 75.2519 19.9763 76.5055 19.9763C77.912 19.9763 78.8598 18.9341 78.8598 17.4015V12.252H81.5505Z" fill="white"/>
<path d="M83.9648 8.14648H86.5943V22.0932H83.9648V8.14648Z" fill="white"/>
<path d="M99.1015 12.2547V22.0941H96.8083L96.6248 20.8986C95.7993 21.8182 94.6069 22.3086 93.231 22.3086C90.418 22.3086 88.4612 20.1936 88.4612 17.1591C88.4612 14.1245 90.418 12.0095 93.231 12.0095C94.6374 12.0095 95.8299 12.5 96.6248 13.4195L96.8083 12.2547H99.1015ZM96.5025 17.1591C96.5025 15.5039 95.4018 14.3391 93.8119 14.3391C92.2525 14.3391 91.1213 15.5039 91.1213 17.1591C91.1213 18.8143 92.222 19.9791 93.8119 19.9791C95.3712 20.0097 96.5025 18.8143 96.5025 17.1591Z" fill="white"/>
<path d="M109.313 12.9567L108.151 15.0104C107.601 14.6425 107.112 14.4893 106.561 14.4893C105.124 14.4893 104.176 15.5008 104.176 17.3093V22.1217H101.547V12.2517H103.84L104.054 13.4778C104.818 12.4662 105.736 12.0371 106.806 12.0371C107.723 12.0371 108.671 12.3436 109.313 12.9567Z" fill="white"/>
<path d="M110.234 9.49295C110.234 8.57338 110.907 7.92969 111.855 7.92969C112.803 7.92969 113.475 8.57338 113.475 9.49295C113.475 10.3819 112.772 10.9949 111.855 10.9949C110.907 11.0256 110.234 10.3819 110.234 9.49295ZM110.51 12.2516H113.139V22.091H110.51V12.2516Z" fill="white"/>
<path d="M122.092 21.7257C121.266 22.0935 120.563 22.2468 119.676 22.2468C117.658 22.2468 116.344 21.174 116.344 18.5992V14.3998H114.57V12.2542H116.344V9.74071L118.973 9.46484V12.2542H121.603V14.4305H118.973V18.6298C118.973 19.5187 119.432 19.9785 120.227 19.9785C120.594 19.9785 121.052 19.8559 121.389 19.7027L122.092 21.7257Z" fill="white"/>
<path d="M133.529 12.252L127.384 26.5052H124.54L126.497 21.9687L122.645 12.252H125.488L126.925 16.0835L127.965 19.0874L129.096 16.0835L130.655 12.252H133.529Z" fill="white"/>
<path d="M12.3591 31.319C10.6469 30.706 8.59833 30.1849 5.66308 27.3955C3.27819 25.3112 0.618123 20.2843 0.648699 15.0121C0.70985 4.71298 0.648699 4.40646 0.648699 4.40646C2.54438 3.48689 5.44905 2.29146 8.47602 1.95429C3.40049 4.92754 1.74942 13.173 9.60732 17.4643C19.2692 22.7364 15.3861 30.1236 12.3591 31.319ZM24.1612 14.9814V4.3758C21.1037 3.08842 18.994 2.16885 15.2638 1.73972C10.1577 1.12668 6.82495 8.36058 14.2548 12.5599C19.2386 15.3799 22.6019 19.8245 21.3177 24.6369C24.1918 20.6214 24.1612 14.9814 24.1612 14.9814Z" fill="white"/>
</g>
<defs>
<clipPath id="clip0_1660_12229">
<rect width="134" height="32" fill="white"/>
</clipPath>
</defs>
</svg>
