<svg width="112" height="32" viewBox="0 0 112 32" fill="none" xmlns="http://www.w3.org/2000/svg">
<g clip-path="url(#clip0_1660_12223)">
<path d="M37.4581 2.52686H40.6729C42.0943 2.52686 43.129 2.7641 43.7771 3.23482C44.4252 3.70553 44.7493 4.45492 44.7493 5.47167C44.7493 6.11184 44.6204 6.62774 44.3663 7.01938C44.1122 7.41101 43.6961 7.7424 43.1254 8.01354C43.7624 8.29597 44.2669 8.6876 44.6462 9.18468C45.0218 9.68552 45.2096 10.3069 45.2096 11.0563C45.2096 11.6625 45.1138 12.1747 44.9224 12.5851C44.7309 12.9994 44.4547 13.327 44.0938 13.5793C43.7329 13.8278 43.3021 14.0086 42.7976 14.1178C42.2931 14.227 41.7334 14.2797 41.1184 14.2797H37.4581V2.53062V2.52686ZM38.5076 7.73488H41.008C41.3468 7.73488 41.6782 7.70098 42.0022 7.63696C42.3263 7.57295 42.6135 7.45622 42.8602 7.29429C43.1106 7.13237 43.3131 6.91018 43.4641 6.62775C43.6188 6.34532 43.6961 5.98758 43.6961 5.55452C43.6961 5.12146 43.6298 4.76371 43.4973 4.48881C43.3647 4.21015 43.1695 3.99174 42.9081 3.82981C42.6466 3.66788 42.3226 3.5549 41.9359 3.49465C41.5493 3.4344 41.0963 3.40428 40.5734 3.40428H38.5039V7.73488H38.5076ZM38.5076 13.3985H41.2289C42.2489 13.3985 42.9891 13.2065 43.4568 12.8224C43.9244 12.4383 44.1564 11.8282 44.1564 10.9922C44.1564 10.6571 44.0938 10.3408 43.9723 10.047C43.8508 9.75332 43.6556 9.50101 43.3905 9.29013C43.1254 9.07925 42.7866 8.91355 42.3705 8.79305C41.958 8.67254 41.4646 8.61605 40.8901 8.61605H38.5039V13.4023L38.5076 13.3985Z" fill="white"/>
<path d="M53.4069 5.97613C53.1638 5.10624 52.8103 4.43592 52.35 3.95768C51.8897 3.47943 51.3079 3.2422 50.6082 3.2422C50.0338 3.2422 49.544 3.374 49.1353 3.64137C48.7265 3.90873 48.3877 4.274 48.1152 4.74096C47.8428 5.20791 47.6476 5.7577 47.5187 6.38658C47.3898 7.01546 47.3272 7.68952 47.3272 8.40501C47.3272 9.1205 47.3898 9.79458 47.5187 10.4235C47.6476 11.0523 47.8464 11.6021 48.1226 12.0691C48.3988 12.536 48.7523 12.9013 49.1795 13.1687C49.6103 13.436 50.1222 13.5678 50.715 13.5678C51.1716 13.5678 51.562 13.4888 51.886 13.3306C52.2101 13.1724 52.4826 12.9653 52.7072 12.7055C52.9318 12.4457 53.1123 12.1406 53.2559 11.7942C53.3995 11.4477 53.5173 11.0825 53.6131 10.7021L54.6 10.8829C54.4932 11.4025 54.3422 11.8846 54.147 12.3214C53.9519 12.762 53.6978 13.1386 53.3921 13.4511C53.0828 13.7674 52.7109 14.0084 52.269 14.1854C51.8271 14.3587 51.3042 14.4453 50.7003 14.4453C50.0006 14.4453 49.3783 14.3022 48.8296 14.016C48.2846 13.7298 47.8207 13.3193 47.4451 12.7883C47.0695 12.2574 46.7785 11.621 46.576 10.8829C46.3735 10.1448 46.274 9.32009 46.274 8.40878C46.274 7.49747 46.3735 6.67277 46.576 5.93469C46.7785 5.1966 47.0658 4.56396 47.4451 4.02923C47.8207 3.49826 48.2846 3.08779 48.8296 2.80159C49.3746 2.5154 50.0006 2.37231 50.7003 2.37231C51.2085 2.37231 51.6651 2.45893 52.0702 2.63215C52.4752 2.80538 52.825 3.04637 53.127 3.34763C53.429 3.65265 53.6794 4.01416 53.8819 4.42839C54.0844 4.84639 54.2465 5.29451 54.3753 5.77276L53.4032 5.98364L53.4069 5.97613Z" fill="white"/>
<path d="M63.1655 5.9461C63.0808 5.57706 62.9593 5.22686 62.801 4.89547C62.6426 4.56409 62.4401 4.27787 62.1971 4.0331C61.954 3.78833 61.6668 3.59629 61.3391 3.45696C61.0113 3.31762 60.632 3.24608 60.2086 3.24608C59.7004 3.24608 59.2401 3.36656 58.8313 3.6038C58.4226 3.84104 58.0728 4.18751 57.7819 4.63563C57.4909 5.08752 57.2663 5.62977 57.1043 6.26241C56.946 6.89882 56.8649 7.61057 56.8649 8.40137C56.8649 9.03025 56.9165 9.65535 57.0233 10.2729C57.1301 10.8905 57.3216 11.4441 57.5977 11.9336C57.8739 12.4232 58.2458 12.8148 58.7209 13.1123C59.1922 13.4098 59.7998 13.5604 60.5437 13.5604C60.9487 13.5604 61.317 13.4889 61.6484 13.342C61.9835 13.1952 62.267 12.9918 62.499 12.732C62.731 12.4721 62.9114 12.1709 63.0403 11.8282C63.1692 11.4855 63.2318 11.1202 63.2318 10.7286V9.65535H60.3338V8.77794H64.2813V14.2797H63.3754V13.1236H63.3423C63.0035 13.5793 62.5948 13.9144 62.1234 14.1253C61.6521 14.3362 61.0187 14.4416 60.2233 14.4416C59.5862 14.4416 58.9971 14.3098 58.4557 14.0424C57.9144 13.7751 57.4468 13.3872 57.0564 12.8788C56.6624 12.3704 56.3568 11.7378 56.1395 10.9922C55.9222 10.2428 55.8118 9.38044 55.8118 8.40512C55.8118 7.42979 55.9296 6.56744 56.1616 5.81806C56.3936 5.06868 56.714 4.43979 57.1153 3.93142C57.5167 3.42305 57.9918 3.03519 58.5331 2.76782C59.0744 2.50045 59.6525 2.36865 60.2675 2.36865C60.7977 2.36865 61.2801 2.45149 61.7147 2.62095C62.1492 2.79041 62.5322 3.02388 62.8599 3.32137C63.1876 3.61887 63.4601 3.97662 63.6811 4.39462C63.8983 4.81262 64.0567 5.27202 64.1524 5.7691L63.1655 5.94987V5.9461Z" fill="white"/>
<path d="M37.4873 30.1222V17.2698H40.9524C42.4365 17.2698 43.5449 17.6049 44.2666 18.2752C44.992 18.9455 45.3566 19.8945 45.3566 21.1146C45.3566 22.3347 44.992 23.2837 44.2666 23.954C43.5412 24.6243 42.4365 24.9594 40.9524 24.9594H39.8919V30.1222H37.491H37.4873ZM39.8882 22.9297H41.1771C42.3591 22.9297 42.952 22.3234 42.952 21.1146C42.952 19.9058 42.3591 19.2995 41.1771 19.2995H39.8882V22.9297Z" fill="white"/>
<path d="M46.8572 30.1222V17.2698H49.2582V27.9494H53.121V30.1222H46.8572Z" fill="white"/>
<path d="M54.4262 30.1222L57.5415 17.2698H60.6237L63.6506 30.1222H61.3528L60.7452 27.4184H57.42L56.7424 30.1222H54.4262ZM57.8545 25.2456H60.2407L59.0734 20.0489H59.0403L57.8582 25.2456H57.8545Z" fill="white"/>
<path d="M71.3715 17.2698V19.4426H68.5692V30.1222H66.1683V19.4426H63.366V17.2698H71.3715Z" fill="white"/>
<path d="M75.939 17.2698H73.5381V30.1222H75.939V17.2698Z" fill="white"/>
<path d="M78.4747 30.1222V17.2698H81.1039L84.4439 24.8879H84.4807V17.2698H86.6754V30.1222H84.3776L80.7025 21.8263H80.6694V30.1222H78.4747Z" fill="white"/>
<path d="M91.6019 17.2698H89.201V30.1222H91.6019V17.2698Z" fill="white"/>
<path d="M93.7875 21.4008C93.7875 20.6062 93.887 19.9359 94.0821 19.3899C94.2773 18.8439 94.5535 18.4033 94.8996 18.0643C95.2495 17.7254 95.6656 17.4806 96.1516 17.3262C96.6414 17.1719 97.1717 17.0928 97.7535 17.0928C98.3353 17.0928 98.8693 17.1719 99.3553 17.3262C99.8414 17.4806 100.261 17.7254 100.607 18.0643C100.954 18.4033 101.23 18.8439 101.425 19.3899C101.62 19.9359 101.719 20.6062 101.719 21.4008V25.995C101.719 26.7896 101.62 27.4599 101.425 28.0059C101.226 28.5519 100.954 28.9925 100.607 29.3314C100.258 29.6703 99.8414 29.9151 99.3553 30.0695C98.8693 30.2239 98.3353 30.2992 97.7535 30.2992C97.1717 30.2992 96.6414 30.2239 96.1516 30.0695C95.6656 29.9151 95.2458 29.6703 94.8996 29.3314C94.5498 28.9925 94.2773 28.5519 94.0821 28.0059C93.8833 27.4599 93.7875 26.7896 93.7875 25.995V21.4008ZM96.1885 26.3151C96.1885 27.0268 96.3284 27.5088 96.6046 27.7573C96.8844 28.0059 97.2674 28.1302 97.7535 28.1302C98.2396 28.1302 98.6225 28.0059 98.9024 27.7573C99.1823 27.5088 99.3185 27.0268 99.3185 26.3151V21.0807C99.3185 20.369 99.1786 19.887 98.9024 19.6384C98.6225 19.3899 98.2396 19.2656 97.7535 19.2656C97.2674 19.2656 96.8844 19.3899 96.6046 19.6384C96.3247 19.887 96.1885 20.369 96.1885 21.0807V26.3151Z" fill="white"/>
<path d="M103.799 30.1222V17.2698H106.429L109.772 24.8879H109.805V17.2698H112V30.1222H109.702L106.027 21.8263H105.994V30.1222H103.799Z" fill="white"/>
<path d="M18.0383 31.8618L15.6337 12.6453L23.4551 16.057L18.0383 31.8618Z" fill="#74716E"/>
<path d="M18.0364 31.862L15.6318 12.6454L0 6.33032L18.0364 31.862Z" fill="#464646"/>
<path d="M33.0126 6.33398L23.4568 16.0571L18.04 31.8619L33.0126 6.33398Z" fill="#DBDBDA"/>
<path d="M15.6337 12.6454L33.0109 6.33398L23.4551 16.0571L15.6337 12.6454Z" fill="#F6F6F5"/>
<path d="M15.6318 12.6453L0 6.33395L17.3883 0L33.0091 6.33395L15.6318 12.6453Z" fill="#464646"/>
<path d="M0 6.33398H33.0091L15.6318 12.6454L0 6.33398Z" fill="#74716E"/>
</g>
<defs>
<clipPath id="clip0_1660_12223">
<rect width="112" height="32" fill="white"/>
</clipPath>
</defs>
</svg>
