<svg width="87" height="32" viewBox="0 0 87 32" fill="none" xmlns="http://www.w3.org/2000/svg">
<g clip-path="url(#clip0_1660_12466)">
<path fill-rule="evenodd" clip-rule="evenodd" d="M43.6826 23.4398C43.6826 23.2404 43.711 23.0162 43.7208 22.8075C31.6536 22.4625 20.8032 22.5215 19.6545 22.5215C18.0727 22.5215 18.0727 24.2204 19.6545 24.2204C29.168 24.2204 37.1279 24.5007 43.8334 24.9489C43.74 24.426 43.6826 23.9088 43.6826 23.4398Z" fill="white"/>
<path fill-rule="evenodd" clip-rule="evenodd" d="M53.1366 23.2799C52.9683 24.1038 52.74 24.8653 52.4442 25.5326C75.9934 27.7152 79.123 31.8357 80.0102 31.0351C80.6569 30.4496 80.7076 28.5158 78.5644 26.5837C76.4323 24.7582 65.2225 23.7913 53.1366 23.2799Z" fill="white"/>
<path fill-rule="evenodd" clip-rule="evenodd" d="M12.5509 2.36107C18.9743 3.47409 15.689 9.83204 8.54958 10.9672C10.2293 7.47115 11.7864 4.1321 12.5509 2.36107ZM13.2931 20.3C11.342 20.3 9.21567 16.8241 8.37659 13.6683C18.9503 12.5109 23.1747 0.998444 11.712 0.0685242C11.2674 0 10.823 0 10.5009 0H10.179C2.89082 0 0.593315 5.58536 2.37187 7.19742C3.78 8.51564 5.36111 7.65224 4.74354 7.08468C3.75594 6.15293 5.21437 2.838 9.21567 2.29255C8.12925 4.49647 6.47377 7.9923 4.8682 11.263C2.37187 16.2806 0 21.0709 0 21.5016C0 22.0931 1.48249 23.1599 2.37187 23.1599C2.5709 23.1599 4.27489 19.7989 6.27633 15.6891C7.16551 19.2091 9.31409 23.1599 12.3779 23.1599C14.7014 23.1599 16.3571 20.6845 15.5403 19.9358C14.8484 19.2774 14.949 20.3 13.2931 20.3Z" fill="white"/>
<path fill-rule="evenodd" clip-rule="evenodd" d="M34.8065 7.27431C36.2024 5.86625 36.9348 5.64086 36.9348 4.73143C36.9348 3.91461 35.6303 3.3473 34.9668 3.55242C34.2119 3.77982 32.9298 5.66296 32.9298 6.75138C32.9298 7.3187 34.2808 7.77314 34.8065 7.27431Z" fill="white"/>
<path fill-rule="evenodd" clip-rule="evenodd" d="M64.2183 11.2249C63.7683 12.0251 63.3687 12.8939 63.0427 13.7388C62.3664 14.9053 61.0909 16.8013 59.9641 16.8013C57.5884 16.8013 61.1152 10.1289 63.4176 10.1289C64.194 10.1289 64.2693 10.7001 64.2183 11.2249ZM49.2508 25.5762C47.5495 25.5762 48.1994 21.9422 49.8008 17.555C49.976 18.0572 50.2513 18.5597 50.7014 18.9727C50.9012 22.0577 50.1269 25.5762 49.2508 25.5762ZM23.4843 11.2249C23.034 12.0251 22.6346 12.8939 22.3086 13.7388C21.6321 14.9053 20.3566 16.8013 19.23 16.8013C16.8543 16.8013 20.3809 10.1289 22.6836 10.1289C23.4597 10.1289 23.535 10.7001 23.4843 11.2249ZM59.2347 2.60989C59.9091 2.60989 56.3821 6.7016 53.3545 9.76235C55.5058 5.78612 57.8083 2.60989 59.2347 2.60989ZM78.9619 2.58763C79.1637 2.58763 77.3359 7.01976 74.2574 9.09992C76.0096 5.76387 78.0877 2.58763 78.9619 2.58763ZM85.9973 2.58763C86.1991 2.58763 84.3715 7.01976 81.2928 9.09992C83.045 5.76387 85.1213 2.58763 85.9973 2.58763ZM85.0482 12.2074C83.9212 12.2074 80.9689 17.3503 78.966 16.7324C78.1163 16.4813 79.0169 13.9453 80.4677 10.8137C83.3467 10.0601 87 4.71248 87 2.22111C87 1.32972 85.5738 0.416259 84.7729 0.416259C82.116 0.416259 77.0456 8.5962 75.7039 14.262C74.4743 15.6151 73.0531 17.0785 71.9304 16.7324C71.0807 16.4813 71.9813 13.9453 73.4321 10.8137C76.3111 10.0601 79.9642 4.71248 79.9642 2.22111C79.9642 1.32972 78.538 0.416259 77.7373 0.416259C75.0508 0.416259 69.891 8.78287 68.6194 14.4532C67.7239 15.6394 66.7532 16.8013 65.8709 16.8013C63.9678 16.8013 68.1468 10.3113 68.1468 9.44235C68.1468 8.50646 67.3968 8.23115 66.7959 8.23115C66.4211 8.23115 65.8953 8.73523 65.2944 9.51132C65.1435 9.05523 64.7196 8.23115 63.5931 8.23115C60.6975 8.23115 57.9968 10.9449 56.868 13.9032C55.7493 15.4127 54.4077 17.2815 53.1547 17.2815C52.8041 17.2815 52.5026 17.1903 52.2031 17.0524C51.977 15.9101 51.6266 14.9277 51.2027 14.3098C55.881 10.0136 60.6853 5.14595 60.6853 2.47214C60.6853 1.67399 59.3589 0.736255 58.1077 0.736255C55.6466 0.736255 50.6088 7.3576 47.5373 14.175C46.5877 15.4417 45.5355 16.7789 44.587 16.7789C42.9344 16.7789 46.1884 11.9562 46.1884 10.6089C46.1884 8.98645 44.536 8.23115 43.5355 8.23115C41.9851 8.23115 40.7828 9.3287 38.0567 13.5788C38.3805 12.8696 38.7819 12.1162 39.9066 9.96887C40.459 9.05523 39.1325 8.25524 37.9812 8.25524C37.0941 8.25524 35.5841 11.3066 34.6498 13.7991C33.6353 15.1574 32.4699 16.7789 31.4222 16.7789C29.5457 16.7789 34.175 10.3336 34.175 9.46644C34.175 8.45993 33.0241 8.27768 32.4737 8.27768C31.8919 8.27768 30.1549 10.5565 28.9948 12.9893C27.8527 14.4117 26.4031 16.8013 25.1368 16.8013C23.2335 16.8013 27.4125 10.3113 27.4125 9.44235C27.4125 8.50646 26.6627 8.23115 26.0616 8.23115C25.6868 8.23115 25.1612 8.73523 24.5601 9.51132C24.4092 9.05523 23.9855 8.23115 22.8588 8.23115C19.0546 8.23115 15.5767 12.9161 15.5767 16.6858C15.5767 18.5597 16.528 19.6576 18.0543 19.6576C19.4562 19.6576 20.7315 18.5152 21.6585 17.4172C21.8073 18.3325 22.3841 19.6576 24.1851 19.6576C25.5257 19.6576 26.8565 18.6564 27.9526 17.381C28.1054 18.2875 28.6574 19.6351 30.4953 19.6351C31.7106 19.6351 32.9169 18.8057 33.946 17.6981C34.2016 18.9457 34.9402 19.6576 36.0291 19.6576C36.3797 19.6576 36.7547 19.5888 36.7791 19.3839C39.3566 13.2139 42.3355 11.156 42.6104 11.156C43.285 11.156 41.0579 14.3322 41.0579 16.7789C41.0579 17.4638 41.3084 19.6576 43.6354 19.6576C44.3616 19.6576 45.085 19.3596 45.7707 18.889C45.2745 20.6027 44.972 22.2339 44.972 23.6561C44.972 25.2787 45.7461 28.0435 48.0729 28.0435C51.3779 28.0435 52.5779 23.6338 52.4782 19.6798H52.7044C54.0216 19.6798 55.3306 18.7053 56.4167 17.4568C56.6562 18.8346 57.4965 19.6576 58.7884 19.6576C60.1903 19.6576 61.4656 18.5152 62.3928 17.4172C62.5416 18.3325 63.1182 19.6576 64.9192 19.6576C66.1581 19.6576 67.3867 18.8006 68.4321 17.6655C68.9066 19.7681 70.9545 19.6351 70.9545 19.6351C72.667 19.7482 74.2237 18.85 75.4657 17.6493C75.9341 19.7668 77.99 19.6351 77.99 19.6351C82.8454 19.9553 86.4988 12.2074 85.0482 12.2074Z" fill="white"/>
</g>
<defs>
<clipPath id="clip0_1660_12466">
<rect width="87" height="32" fill="white"/>
</clipPath>
</defs>
</svg>
