<svg width="85" height="32" viewBox="0 0 85 32" fill="none" xmlns="http://www.w3.org/2000/svg">
<path d="M0.334169 2.00201C3.8558 1.93786 5.8531 3.40567 6.25411 6.41058C7.79129 3.47239 10.0996 2.00201 12.3745 2.00201C21.0347 2.00201 18.6261 14.4527 9.80401 16.6904C11.4697 20.6653 17.0555 27.0754 23.6489 26.9419L23.2813 29.9135C17.5285 30.0136 10.0713 24.7377 6.57285 17.0265L5.47009 16.9265L4.0306 23.6368H0.634922L3.27743 11.7866C3.56645 10.6388 3.73444 9.46394 3.77868 8.28126C3.77868 6.01026 2.77618 4.74261 0 4.80933L0.334169 2.00201ZM7.2232 14.3886C13.7446 14.3886 17.2483 4.87605 12.4414 4.87605C9.39787 4.87605 6.98928 9.95693 5.95335 14.2551C6.37276 14.3308 6.7972 14.3754 7.2232 14.3886ZM22.7415 10.6164C25.348 10.6164 26.9906 11.9534 26.9906 14.4219C26.9906 18.23 22.7107 19.8646 19.2327 18.7638C19.8342 21.2657 22.7441 21.4325 26.3891 20.6653L26.0883 23.3699C20.5643 24.6042 16.1532 22.9696 16.1532 17.5936C16.1532 13.8882 19.0219 10.6164 22.7415 10.6164ZM23.9779 14.3886C23.9779 12.387 19.7982 12.8874 19.297 16.5929C21.4357 17.2267 23.9779 16.5261 23.9779 14.3886ZM30.4043 10.95H33.4426L33.1085 12.5538C34.0776 11.0834 35.1469 10.6164 36.3833 10.6164C37.5555 10.6164 38.5914 11.3195 39.0258 12.6873C40.1312 11.1835 41.4344 10.6164 42.7711 10.6164C44.7787 10.6164 46.3159 12.387 45.5807 15.8256L43.9561 23.47H40.7327L42.3367 16.1926C42.8045 14.1217 42.4369 13.2877 41.5655 13.2877C40.5964 13.2877 39.5913 14.4553 38.5888 17.994L37.4192 23.47H34.2112L35.8152 16.1926C36.2831 14.1217 35.9155 13.2877 35.0441 13.2877C34.1084 13.2877 32.836 15.2918 32.1008 17.8272L30.8644 23.4726H27.6898L30.4043 10.95ZM49.565 10.95H52.7756L50.0277 23.47H46.8531L49.565 10.95ZM51.6677 4.64253C52.0566 4.65574 52.4328 4.78336 52.7493 5.00936C53.0657 5.23536 53.3082 5.54967 53.4463 5.91279C53.5843 6.27592 53.6118 6.67168 53.5253 7.05037C53.4388 7.42905 53.2421 7.77377 52.96 8.04123C52.6779 8.30869 52.3228 8.48696 51.9395 8.55365C51.5562 8.62035 51.1618 8.57248 50.8056 8.41608C50.4495 8.25968 50.1476 8.00171 49.9378 7.67457C49.7281 7.34743 49.6198 6.96572 49.6267 6.57737C49.6303 6.31558 49.6863 6.05715 49.7914 5.81729C49.8966 5.57742 50.0487 5.36098 50.2389 5.18069C50.429 5.0004 50.6534 4.85991 50.8988 4.76749C51.1442 4.67507 51.4056 4.63258 51.6677 4.64253ZM56.0145 10.95H59.058L58.5233 13.4545C59.6595 11.2528 60.8985 10.6164 62.4023 10.6164C64.5435 10.6164 66.0139 12.387 65.3455 15.8256L63.8726 23.47H60.6954L62.1349 16.1926C62.5359 14.1217 62.2069 13.2929 61.3329 13.2929C60.1942 13.2929 58.7624 14.9634 57.7342 17.8323L56.4952 23.4777H53.3051L56.0145 10.95ZM73.2602 10.6164C73.8236 10.594 74.382 10.7291 74.8725 11.0066C75.3631 11.2841 75.7662 11.6929 76.0364 12.1869L78.0105 3.1388H81.0181L78.0208 17.3986C77.5067 19.8364 78.5349 21.1041 82 21.1041L81.4653 23.8139C78.5889 23.8139 76.5813 23.3135 75.7125 21.2478C74.9773 22.7181 73.07 23.8139 71.2989 23.8139C68.5895 23.8139 66.9161 21.4428 67.15 18.1685C67.384 14.4553 69.4918 10.6164 73.2602 10.6164ZM71.8567 21.0989C73.6561 21.0989 75.1007 18.597 75.1007 15.6254C75.1007 14.1884 74.4632 13.221 73.4941 13.221C71.6562 13.221 70.1164 15.6922 70.1164 18.5636C70.1267 20.1982 70.8285 21.0989 71.867 21.0989H71.8567Z" fill="white"/>
</svg>
