<svg width="126" height="32" viewBox="0 0 126 32" fill="none" xmlns="http://www.w3.org/2000/svg">
<path d="M117.981 19.6167C117.981 18.983 118.378 18.7442 119.509 18.7442H121.472C122.622 18.7442 123 18.9646 123 19.6167V21.1229C123 21.7566 122.603 21.9954 121.472 21.9954H119.509C118.354 21.9954 117.981 21.775 117.981 21.1229V19.6167Z" fill="white"/>
<path d="M57.3476 21.9956C49.9534 21.9956 47.6968 20.1036 47.6968 17.6561V9H52.5412V17.1785C52.5412 19.1714 54.6984 19.7271 57.5747 19.7271C59.0829 19.7456 60.591 19.6858 62.0926 19.548V9H66.9417V21.4399C63.7605 21.8381 60.555 22.0237 57.3476 21.9956Z" fill="white"/>
<path d="M14.3958 21.1828V16.1407H4.84906V21.1828H0V9H4.84906V13.9824H14.3958V9H19.2448V21.1828H14.3958Z" fill="white"/>
<path d="M77.266 11.42H90.3608V9H76.2583C72.4406 9 71.1254 9.62911 71.1254 11.4797V21.1828H75.9745V16.0718H90.3608V13.8997H75.9745V12.1639C75.9745 11.7277 76.2394 11.42 77.266 11.42Z" fill="white"/>
<path d="M99.8766 11.4384C98.85 11.4384 98.5614 11.7461 98.5614 12.1823V13.9549H112.962V16.0534H98.5614V18.0005C98.5614 18.4367 98.8311 18.7444 99.8766 18.7444H112.962V21.1828H98.8737C95.0512 21.1828 93.7408 20.5537 93.7408 18.7031V11.4797C93.7408 9.64289 95.0512 9 98.8737 9H112.962V11.4384H99.8766Z" fill="white"/>
<path d="M33.2572 19.9062C31.9134 19.924 30.5708 19.8241 29.2455 19.6077C28.5501 19.5067 28.2615 19.2495 28.2615 18.6893V17.2198C28.2615 16.6412 28.569 16.4024 29.2455 16.3014C30.5708 16.085 31.9134 15.9851 33.2572 16.0029H37.7988V19.7455C36.8999 19.8465 35.088 19.9062 33.2572 19.9062ZM33.2572 13.8768C30.6329 13.8549 28.0116 14.0546 25.423 14.4738C24.0038 14.6896 23.4266 15.1901 23.4266 16.3427V19.525C23.4266 20.6822 24.0227 21.1782 25.423 21.3986C28.0145 21.7948 30.6338 21.9944 33.2572 21.9956C36.4065 22.033 39.554 21.8334 42.6715 21.3986V13.2201C42.6715 9.23879 41.0914 9 35.703 9H24.9074V11.1904H35.58C37.5953 11.1904 37.7609 11.7277 37.7609 12.8987V13.8768H33.2572Z" fill="white"/>
</svg>
