<svg width="151" height="32" viewBox="0 0 151 32" fill="none" xmlns="http://www.w3.org/2000/svg">
<path d="M37.0443 24.7083V10.4226H39.7379V22.2552H45.369L45.1766 24.7083H37.0443Z" fill="white"/>
<path d="M62.2304 24.7083H59.3443L57.9735 20.9565H52.5622L51.1914 24.7083H48.4016L53.7647 10.4226H56.8912L62.2304 24.7083ZM57.252 18.792L55.809 14.9199C55.6968 14.6153 55.6006 14.3267 55.5204 14.0541C55.4563 13.7816 55.3921 13.517 55.328 13.2605H55.2077C55.1436 13.517 55.0715 13.7816 54.9913 14.0541C54.9272 14.3267 54.839 14.6153 54.7267 14.9199L53.2356 18.792H57.252Z" fill="white"/>
<path d="M75.4309 10.4226L70.212 24.7083H67.0615L61.8426 10.4226H64.7527L68.1678 20.0185C68.264 20.3232 68.3522 20.6278 68.4323 20.9324C68.5125 21.2371 68.5846 21.5176 68.6488 21.7742H68.745C68.8091 21.5176 68.8813 21.2371 68.9614 20.9324C69.0416 20.6278 69.1298 20.3232 69.226 20.0185L72.6651 10.4226H75.4309Z" fill="white"/>
<path d="M87.5077 10.4226L87.2913 12.8276H80.918V16.3389H86.209V18.6958H80.918V22.3033H87.628V24.7083H78.2244V10.4226H87.5077Z" fill="white"/>
<path d="M103.918 10.4226V24.7083H101.561L95.5244 16.2667C95.316 15.9942 95.1236 15.7136 94.9472 15.425C94.7708 15.1364 94.6105 14.8638 94.4662 14.6073H94.37V24.7083H91.7726V10.4226H94.4181L100.166 18.4553C100.374 18.7439 100.567 19.0325 100.743 19.3211C100.936 19.5936 101.096 19.8582 101.224 20.1147H101.32V10.4226H103.918Z" fill="white"/>
<path d="M121.114 17.5654C121.114 18.9764 120.794 20.2189 120.152 21.2932C119.511 22.3674 118.597 23.2092 117.411 23.8184C116.224 24.4117 114.813 24.7083 113.178 24.7083H108.344V10.4226H113.178C114.813 10.4226 116.224 10.7272 117.411 11.3365C118.597 11.9297 119.511 12.7634 120.152 13.8377C120.794 14.8959 121.114 16.1385 121.114 17.5654ZM118.301 17.5654C118.301 16.5553 118.092 15.6895 117.675 14.968C117.258 14.2465 116.665 13.6934 115.896 13.3086C115.126 12.9238 114.22 12.7314 113.178 12.7314H111.038V22.3995H113.178C114.236 22.3995 115.142 22.2071 115.896 21.8223C116.665 21.4375 117.258 20.8843 117.675 20.1628C118.092 19.4253 118.301 18.5595 118.301 17.5654Z" fill="white"/>
<path d="M134.295 10.4226L134.078 12.8276H127.705V16.3389H132.996V18.6958H127.705V22.3033H134.415V24.7083H125.011V10.4226H134.295Z" fill="white"/>
<path d="M148.831 15.1123C148.831 16.1064 148.55 16.9481 147.989 17.6376C147.444 18.311 146.754 18.7759 145.92 19.0325L149.768 24.7083H146.618L143.251 19.6818H140.99V24.7083H138.297V10.4226H143.059C144.261 10.4226 145.295 10.607 146.161 10.9757C147.027 11.3285 147.684 11.8576 148.133 12.563C148.598 13.2525 148.831 14.1022 148.831 15.1123ZM146.089 15.1123C146.089 14.5351 145.953 14.0702 145.68 13.7174C145.423 13.3487 145.063 13.0841 144.598 12.9238C144.133 12.7474 143.588 12.6592 142.962 12.6592H140.99V17.5654H142.962C143.588 17.5654 144.133 17.4772 144.598 17.3009C145.063 17.1245 145.423 16.86 145.68 16.5072C145.953 16.1385 146.089 15.6735 146.089 15.1123Z" fill="white"/>
<path d="M12.342 25.7242C10.2677 24.7048 8.90847 21.6905 8.79555 18.7213C8.68264 15.7521 9.38133 13.768 11.5576 12.2973C12.2107 11.8559 12.5996 10.952 13.8527 11.3071C15.1057 11.6623 16.6271 13.2257 17.2748 15.8043C17.9225 18.383 17.3966 20.9107 16.6897 22.5577C15.9828 24.2047 14.4163 26.7437 12.342 25.7242Z" fill="white"/>
<path d="M8.24461 21.7929C7.62642 19.8254 7.6021 17.4543 7.90823 16.4683C7.95155 16.354 7.90823 16.2433 7.77825 16.2204C7.51785 16.1498 7.0957 16.0584 6.40139 15.9848C5.35548 15.874 2.98209 15.5578 1.8569 16.8817C0.731714 18.2055 1.12259 19.4064 2.89668 22.7058C4.67076 26.0053 5.95039 26.9553 7.37297 26.9991C8.32597 27.0285 9.35989 26.3368 9.93863 25.877C10.214 25.6582 10.2545 25.2691 10.0608 24.9755C9.51376 24.1465 8.47184 22.5162 8.24461 21.7929Z" fill="white"/>
<path d="M1.02985 12.7909C1.14605 14.0891 1.59847 15.1452 1.76194 15.4917C1.7931 15.5577 1.87398 15.5814 1.9389 15.548C2.25348 15.3861 3.18478 14.9713 4.55865 14.9182C6.27114 14.8521 7.29978 15.4102 7.97746 15.3553C8.18667 15.3383 8.27429 14.6875 8.17685 14.3518C8.07941 14.0162 6.93217 12.4805 5.875 11.5287C4.66095 10.4356 3.39944 9.18531 2.32241 9.32008C1.24539 9.45484 0.887266 11.1978 1.02985 12.7909Z" fill="white"/>
<path d="M13.4403 10.2058C12.5556 10.2489 11.9923 10.4818 11.6224 10.8509C11.5462 10.927 11.3878 10.8588 11.404 10.7522C11.6374 9.22204 12.0015 7.31895 13.1656 6.79887C14.7838 6.07588 15.4714 6.36512 17.1009 5.74713C18.6772 5.14936 19.3377 6.31764 19.156 8.31035C19.0177 9.82769 18.0631 11.9588 17.4268 13.2027C17.3887 13.277 17.2822 13.2742 17.2441 13.1999C16.3532 11.4601 14.5656 10.1511 13.4403 10.2058Z" fill="white"/>
<path d="M17.7007 26.7344C17.2952 26.7717 16.4883 26.5288 16.1404 26.1021C15.9626 25.884 16.0009 25.5744 16.1203 25.3195C16.5079 24.4927 17.4101 23.5703 17.7366 22.7519C18.3948 21.102 18.6171 19.6501 18.5166 18.7213C18.3745 17.4086 19.2284 16.694 21.0597 15.9139C23.5504 14.8529 25.2372 17.2549 24.8693 18.6042C24.4551 20.1237 24.414 21.8331 22.775 23.7894C21.4975 25.3142 18.8936 26.6246 17.7007 26.7344Z" fill="white"/>
<path d="M23.1999 12.0052C25.2434 12.0428 26.4661 13.0621 24.6051 15.3894C24.5541 15.453 24.4604 15.465 24.3945 15.4169C23.7902 14.9756 22.7856 14.4193 21.4076 14.7663C20.4239 15.0141 19.2483 15.6911 18.5166 16.499C18.4793 16.5402 18.4088 16.5194 18.4013 16.4644C18.3587 16.1522 18.2407 15.4005 18.0261 14.8349C17.9728 14.6942 17.9687 14.536 18.0379 14.4023C19.3265 11.9144 21.9469 11.9822 23.1999 12.0052Z" fill="white"/>
<path d="M25.6007 6.9587C25.8362 8.79761 24.5122 9.98805 23.4561 10.3345C22.4 10.6809 20.8368 10.4813 20.7604 9.68216C20.6839 8.88305 22.2551 7.21907 22.8903 5.75044C23.5255 4.28182 25.3652 5.11978 25.6007 6.9587Z" fill="white"/>
</svg>
