<svg width="99" height="32" viewBox="0 0 99 32" fill="none" xmlns="http://www.w3.org/2000/svg">
<path d="M15.5463 1C7.51279 1 1 7.55181 1 15.6337C1 23.716 7.51279 30.2672 15.5463 30.2672C23.5808 30.2672 30.0929 23.716 30.0929 15.6337C30.0929 7.55233 23.5808 1.0007 15.5462 1.0007L15.5463 1V1ZM22.2172 22.106C21.9566 22.5359 21.3973 22.6722 20.97 22.4083C17.5547 20.3096 13.2552 19.8343 8.19179 20.9981C7.70386 21.1099 7.2175 20.8024 7.10633 20.3114C6.99464 19.8203 7.29914 19.331 7.78828 19.2192C13.3294 17.9456 18.0824 18.494 21.9167 20.8513C22.344 21.1152 22.4795 21.6761 22.2172 22.106V22.106ZM23.9976 18.1214C23.6694 18.6582 22.9711 18.8277 22.4378 18.4975C18.5278 16.0797 12.5675 15.3795 7.9427 16.7918C7.34291 16.974 6.70942 16.634 6.52738 16.0316C6.34673 15.4282 6.68493 14.7921 7.28368 14.6086C12.5665 12.9961 19.134 13.7772 23.6242 16.5531C24.1575 16.8833 24.3259 17.5858 23.9976 18.1216V18.1214ZM24.1505 13.9722C19.4623 11.1708 11.7273 10.9133 7.2512 12.28C6.53242 12.4993 5.77229 12.0911 5.55447 11.3679C5.33665 10.6445 5.74207 9.88032 6.46137 9.66049C11.5997 8.09126 20.1415 8.39444 25.5391 11.618C26.187 12.004 26.3989 12.844 26.015 13.4936C25.6329 14.144 24.7956 14.3584 24.1512 13.9722H24.1505ZM40.5758 14.509C38.0641 13.9065 37.6176 13.4836 37.6176 12.595C37.6176 11.7555 38.4028 11.1906 39.5718 11.1906C40.7043 11.1906 41.8264 11.6196 43.0041 12.5028C43.0389 12.5295 43.084 12.5402 43.1275 12.5332C43.1726 12.5265 43.2108 12.5022 43.2369 12.4657L44.4632 10.7266C44.5136 10.655 44.4997 10.5562 44.432 10.5015C43.0302 9.37041 41.453 8.82048 39.6083 8.82048C36.8968 8.82048 35.0017 10.4577 35.0017 12.8002C35.0017 15.3122 36.6362 16.2016 39.4606 16.8882C41.8629 17.4451 42.2694 17.9117 42.2694 18.7456C42.2694 19.67 41.4495 20.2449 40.1294 20.2449C38.6633 20.2449 37.4665 19.7469 36.129 18.5831C36.096 18.5534 36.0508 18.5412 36.0092 18.5429C35.964 18.5464 35.924 18.5674 35.8962 18.6006L34.5205 20.2467C34.4632 20.3166 34.4702 20.4179 34.5362 20.4774C36.0925 21.8753 38.0067 22.6128 40.0738 22.6128C42.9955 22.6128 44.8836 21.0068 44.8836 18.5202C44.8888 16.422 43.6399 15.2599 40.581 14.5113L40.5758 14.509V14.509ZM51.4947 12.0171C50.2284 12.0171 49.1897 12.519 48.3316 13.5474V12.3899C48.3316 12.2985 48.2586 12.224 48.1683 12.224H45.9189C45.8285 12.224 45.7556 12.2985 45.7556 12.3899V25.2515C45.7556 25.3423 45.8285 25.4175 45.9189 25.4175H48.1683C48.2586 25.4175 48.3316 25.3423 48.3316 25.2515V21.1921C49.1897 22.1584 50.2284 22.632 51.4947 22.632C53.8484 22.632 56.2316 20.8094 56.2316 17.3251C56.235 13.8401 53.8518 12.017 51.4964 12.017L51.4947 12.0171ZM53.6156 17.3251C53.6156 19.0986 52.53 20.3376 50.9736 20.3376C49.4363 20.3376 48.276 19.0427 48.276 17.3251C48.276 15.6073 49.4363 14.3128 50.9736 14.3128C52.5039 14.3126 53.6156 15.5792 53.6156 17.3249V17.3251ZM62.3372 12.0171C59.3061 12.0171 56.9316 14.365 56.9316 17.363C56.9316 20.3288 59.2905 22.6512 62.3007 22.6512C65.3422 22.6512 67.7237 20.3114 67.7237 17.3251C67.7237 14.349 65.3579 12.0175 62.3372 12.0175V12.0171V12.0171ZM62.3372 20.355C60.7252 20.355 59.5093 19.0514 59.5093 17.3242C59.5093 15.5891 60.6836 14.3301 62.3007 14.3301C63.9231 14.3301 65.146 15.6332 65.146 17.3621C65.146 19.0969 63.9648 20.355 62.3372 20.355V20.355ZM74.1959 12.224H71.7206V9.67866C71.7206 9.58744 71.6476 9.513 71.5573 9.513H69.3079C69.2175 9.513 69.1428 9.58744 69.1428 9.67866V12.224H68.0624C67.9721 12.224 67.8991 12.2985 67.8991 12.3899V14.3343C67.8991 14.4255 67.9721 14.5001 68.0624 14.5001H69.1428V19.532C69.1428 21.5643 70.1486 22.5953 72.134 22.5953C72.94 22.5953 73.6087 22.4275 74.2393 22.0676C74.2914 22.0396 74.3226 21.9837 74.3226 21.9243V20.0719C74.3226 20.016 74.2931 19.9619 74.2445 19.9321C74.1959 19.9007 74.1351 19.8989 74.0847 19.9252C73.6522 20.1436 73.2335 20.2449 72.7645 20.2449C72.0437 20.2449 71.7206 19.9147 71.7206 19.1772V14.501H74.1959C74.2862 14.501 74.3591 14.4266 74.3591 14.3352V12.3909C74.3626 12.2995 74.2896 12.2251 74.1976 12.2251L74.1959 12.224V12.224ZM82.8184 12.234V11.9214C82.8184 11.0017 83.1693 10.5915 83.9544 10.5915C84.4234 10.5915 84.8004 10.6852 85.2225 10.8268C85.2746 10.8432 85.3284 10.835 85.3701 10.8037C85.4135 10.7724 85.4379 10.7223 85.4379 10.6691V8.76264C85.4379 8.68977 85.3927 8.62528 85.3215 8.60379C84.8768 8.47046 84.3071 8.33363 83.4524 8.33363C81.3767 8.33363 80.2772 9.51038 80.2772 11.7354V12.2142H79.1967C79.1064 12.2142 79.0317 12.2887 79.0317 12.3799V14.3343C79.0317 14.4255 79.1064 14.5001 79.1967 14.5001H80.2772V22.2598C80.2772 22.3524 80.3519 22.4258 80.4422 22.4258H82.6899C82.7819 22.4258 82.8549 22.3524 82.8549 22.2598V14.5006H84.955L88.1719 22.2598C87.8072 23.0741 87.4476 23.2366 86.9577 23.2366C86.5617 23.2366 86.1431 23.1178 85.7175 22.8819C85.6776 22.8609 85.6289 22.8574 85.5872 22.8697C85.5438 22.8854 85.5073 22.9168 85.49 22.9588L84.7274 24.6416C84.6909 24.722 84.7222 24.8146 84.7986 24.8565C85.5942 25.2899 86.3116 25.4751 87.1992 25.4751C88.8598 25.4751 89.7787 24.6958 90.5864 22.6023L94.4877 12.4605C94.5086 12.4094 94.5016 12.3518 94.4704 12.3065C94.4408 12.2616 94.3905 12.2345 94.3366 12.2345H91.9951C91.9239 12.2345 91.8614 12.2794 91.8388 12.3457L89.44 19.2367L86.8136 12.3411C86.7893 12.277 86.7285 12.2345 86.6607 12.2345H82.8184V12.234V12.234ZM77.8193 12.224H75.5698C75.4795 12.224 75.4048 12.2985 75.4048 12.3899V22.2598C75.4048 22.3524 75.4795 22.4258 75.5698 22.4258H77.8193C77.9096 22.4258 77.9843 22.3524 77.9843 22.2598V12.3906C77.9843 12.2992 77.9113 12.2247 77.8193 12.2247V12.224ZM76.7076 7.7297C75.8165 7.7297 75.0939 8.45525 75.0939 9.35153C75.0939 10.2483 75.8165 10.9748 76.7076 10.9748C77.5987 10.9748 78.3195 10.2483 78.3195 9.35153C78.3195 8.45543 77.5969 7.7297 76.7076 7.7297ZM96.4089 15.3976C95.5195 15.3976 94.8265 14.6785 94.8265 13.8053C94.8265 12.9321 95.5282 12.2048 96.4176 12.2048C97.3069 12.2048 98 12.9237 98 13.7962C98 14.6695 97.2982 15.3976 96.4089 15.3976ZM96.4176 12.3631C95.6064 12.3631 94.9932 13.0114 94.9932 13.8053C94.9932 14.5989 95.6029 15.2384 96.4089 15.2384C97.2201 15.2384 97.8332 14.5906 97.8332 13.7962C97.8332 13.0027 97.2236 12.3631 96.4176 12.3631V12.3631ZM96.7685 13.96L97.2166 14.5905H96.8379L96.4349 14.0121H96.0893V14.5905H95.7731V12.9192H96.5131C96.9005 12.9192 97.1541 13.1179 97.1541 13.4523C97.1558 13.7263 96.9977 13.8937 96.7702 13.96H96.7685ZM96.5009 13.2059H96.0893V13.7346H96.5009C96.7059 13.7346 96.8292 13.6334 96.8292 13.47C96.8292 13.298 96.7059 13.2059 96.5009 13.2059V13.2059Z" fill="white"/>
</svg>
