<svg width="167" height="29" viewBox="0 0 167 29" fill="none" xmlns="http://www.w3.org/2000/svg">
<path fill-rule="evenodd" clip-rule="evenodd" d="M45.3452 0.664062L31.189 28.338H17.8923L23.8166 16.8687H23.5508C18.6633 23.2134 11.3709 27.3901 0.980469 28.338V17.0274C0.980469 17.0274 7.6275 16.6348 11.5351 12.5266H0.980469V0.664281H12.8427V10.4208L13.109 10.4197L17.9563 0.664281H26.9275V10.359L27.1937 10.3585L32.2229 0.664062H45.3452Z" fill="white"/>
<path d="M122.541 25.2832H126.361V3.35449H122.541V25.2832Z" fill="white"/>
<path fill-rule="evenodd" clip-rule="evenodd" d="M101.48 25.0593C102.31 25.4045 103.154 25.5771 104.013 25.5771C105.431 25.5771 106.7 25.2319 107.819 24.5416C108.939 23.8512 109.806 22.8996 110.422 21.6868C111.038 20.4646 111.346 19.0792 111.346 17.5305C111.346 15.9818 111.028 14.5964 110.394 13.3743C109.76 12.1521 108.878 11.2052 107.749 10.5335C106.62 9.85242 105.338 9.51656 103.901 9.52589C102.987 9.52589 102.11 9.70315 101.27 10.0577C100.43 10.4122 99.7306 10.916 99.1708 11.569C99.1276 11.6187 99.0856 11.669 99.0449 11.7197V3.36849H95.2105V25.2832H99.0169L99.0092 23.236C99.1077 23.3567 99.2129 23.4747 99.3248 23.59C99.9312 24.215 100.65 24.7048 101.48 25.0593ZM105.398 21.5188C104.773 21.9013 104.059 22.0926 103.257 22.0926C102.464 22.0926 101.736 21.8967 101.074 21.5048C100.412 21.1037 99.8845 20.5579 99.4927 19.8675C99.1102 19.1771 98.9189 18.3935 98.9189 17.5165C98.9096 16.6396 99.0962 15.8559 99.4787 15.1655C99.8705 14.4658 100.398 13.9247 101.06 13.5422C101.722 13.1504 102.455 12.9591 103.257 12.9684C104.059 12.9591 104.773 13.1457 105.398 13.5282C106.033 13.9014 106.518 14.4378 106.854 15.1375C107.199 15.8279 107.371 16.6209 107.371 17.5165C107.371 18.4121 107.199 19.2051 106.854 19.8955C106.518 20.5859 106.033 21.127 105.398 21.5188Z" fill="white"/>
<path d="M50.8809 4.68393H55.247L59.1527 18.9477L63.3076 4.68393H66.9461L71.4523 18.6615L75.2026 4.68393H79.2049L73.2994 25.2832H69.535L64.9529 11.6284L60.7467 25.2832H56.9403L50.8809 4.68393Z" fill="white"/>
<path fill-rule="evenodd" clip-rule="evenodd" d="M85.6525 25.6471C84.1318 25.6564 82.7604 25.3206 81.5383 24.6395C80.3254 23.9491 79.3692 22.9929 78.6695 21.7707C77.9791 20.5486 77.6339 19.1538 77.6339 17.5865C77.6339 16.0658 77.9884 14.6897 78.6975 13.4582C79.4065 12.2267 80.3674 11.2658 81.5802 10.5754C82.7931 9.88507 84.1458 9.53988 85.6385 9.53988C87.3178 9.53988 88.7872 9.91306 90.0467 10.6594C91.3155 11.4058 92.2624 12.4646 92.8875 13.8361C93.5219 15.1982 93.7504 16.7608 93.5732 18.5241H81.5862C81.6197 19.2266 81.795 19.8656 82.112 20.4413C82.4665 21.0757 82.961 21.5701 83.5954 21.9247C84.2298 22.2792 84.9388 22.4564 85.7225 22.4564C86.3196 22.4471 86.8747 22.3445 87.3878 22.1486C87.9009 21.9433 88.3347 21.6681 88.6892 21.3229C89.0531 20.9777 89.3097 20.5859 89.4589 20.1474H93.4612C93.2187 21.2203 92.7335 22.1765 92.0058 23.0162C91.2781 23.8465 90.3639 24.4949 89.263 24.9614C88.1621 25.4278 86.9586 25.6564 85.6525 25.6471ZM82.126 14.6757C81.9024 15.0656 81.7475 15.4854 81.6613 15.9352H89.6072C89.5495 15.367 89.3742 14.8492 89.0811 14.3818C88.7452 13.8314 88.2881 13.4069 87.7097 13.1084C87.1312 12.8005 86.4782 12.6466 85.7505 12.6466C84.9761 12.6466 84.2718 12.8238 83.6374 13.1783C83.003 13.5329 82.4992 14.032 82.126 14.6757Z" fill="white"/>
<path d="M114.158 9.86175C114.158 8.61161 114.443 7.50141 115.012 6.53115C115.581 5.55156 116.379 4.79122 117.405 4.25011C118.441 3.69968 119.649 3.41513 121.03 3.39647V6.79704C120.386 6.80637 119.835 6.94165 119.378 7.20287C118.93 7.45476 118.585 7.82327 118.343 8.3084C118.119 8.75502 117.999 9.2728 117.981 9.86175H120.946V13.0944H117.979V25.2832H114.158V13.0944H111.696V9.86175H114.158Z" fill="white"/>
<path fill-rule="evenodd" clip-rule="evenodd" d="M136.073 25.6191C134.515 25.6191 133.12 25.2786 131.889 24.5975C130.667 23.9072 129.706 22.9556 129.006 21.7427C128.316 20.5206 127.97 19.1352 127.97 17.5865C127.97 16.0285 128.316 14.6384 129.006 13.4162C129.706 12.1848 130.667 11.2285 131.889 10.5475C133.12 9.86641 134.515 9.52589 136.073 9.52589C137.64 9.52589 139.04 9.86641 140.271 10.5475C141.512 11.2285 142.478 12.1801 143.168 13.4023C143.858 14.6244 144.208 16.0191 144.218 17.5865C144.208 19.1352 143.858 20.5206 143.168 21.7427C142.487 22.9556 141.526 23.9072 140.285 24.5975C139.044 25.2786 137.64 25.6191 136.073 25.6191ZM136.073 22.1066C136.894 22.1066 137.622 21.92 138.256 21.5468C138.891 21.1643 139.38 20.6325 139.726 19.9515C140.071 19.2611 140.243 18.4728 140.243 17.5865C140.243 16.6909 140.071 15.8979 139.726 15.2075C139.38 14.5171 138.891 13.9853 138.256 13.6122C137.622 13.2297 136.894 13.0384 136.073 13.0384C135.261 13.0384 134.538 13.2297 133.904 13.6122C133.279 13.9853 132.794 14.5171 132.449 15.2075C132.103 15.8979 131.935 16.6909 131.945 17.5865C131.945 18.4728 132.117 19.2611 132.463 19.9515C132.817 20.6325 133.302 21.1643 133.918 21.5468C134.543 21.92 135.261 22.1066 136.073 22.1066Z" fill="white"/>
<path d="M148.346 9.86175H144.092L148.696 25.2832H152.418L155.446 15.4336L158.716 25.2832H162.382L167 9.86175H163.152L160.533 19.4607L157.638 9.86175H153.916L151.035 19.6721L148.346 9.86175Z" fill="white"/>
</svg>
